<?xml version="1.0" encoding="utf-8"?>
<!-- Generator: Adobe Illustrator 15.0.2, SVG Export Plug-In . SVG Version: 6.00 Build 0)  -->
<!DOCTYPE svg PUBLIC "-//W3C//DTD SVG 1.1//EN" "http://www.w3.org/Graphics/SVG/1.1/DTD/svg11.dtd">
<svg version="1.1" id="Слой_1" xmlns="http://www.w3.org/2000/svg" xmlns:xlink="http://www.w3.org/1999/xlink" x="0px" y="0px"
	 width="45.637px" height="43px" viewBox="0 0 45.637 43" enable-background="new 0 0 45.637 43" xml:space="preserve">
<path fill="none" stroke-width="2" stroke-linecap="round" stroke-linejoin="round" stroke-miterlimit="22.9256" d="
	M23.745,31.336H4.449c-1.888,0-3.441-1.548-3.441-3.44V4.448c0-1.892,1.548-3.439,3.441-3.439h36.824
	c1.889,0,3.439,1.552,3.439,3.439v23.448c0,1.888-1.555,3.44-3.439,3.44h-1.569"/>
<line fill="none" stroke-width="2" stroke-linecap="round" stroke-linejoin="round" stroke-miterlimit="22.9256" x1="5.863" y1="26.057" x2="9.751" y2="26.057"/>
<line fill="none" stroke-width="2" stroke-linecap="round" stroke-linejoin="round" stroke-miterlimit="22.9256" x1="14.482" y1="26.057" x2="19.319" y2="26.057"/>
<polygon fill="none" stroke-width="2" stroke-linecap="round" stroke-linejoin="round" stroke-miterlimit="22.9256" points="
	44.712,8.225 44.712,13.822 1.008,13.822 1.008,8.225 44.712,8.225 "/>
<path fill="none" stroke-width="2" stroke-miterlimit="22.9256" d="M25.44,27.182h12.95
	c0.654,0,1.192,0.541,1.192,1.191v9.809c0,2.181-1.79,3.97-3.972,3.97h-7.393c-2.18,0-3.967-1.787-3.967-3.97v-9.809
	C24.252,27.718,24.785,27.182,25.44,27.182L25.44,27.182z"/>
<path fill="none" stroke-width="2" stroke-linecap="round" stroke-linejoin="round" stroke-miterlimit="22.9256" d="
	M26.815,26.986v-3.646c0-2.358,1.928-4.285,4.283-4.285h1.633c2.358,0,4.283,1.93,4.283,4.285v3.646 M31.916,31.969
	c0.6,0,1.085,0.488,1.085,1.087c0,0.602-0.485,1.086-1.085,1.086s-1.087-0.484-1.087-1.086
	C30.829,32.457,31.316,31.969,31.916,31.969L31.916,31.969z M31.916,37.24v-3.887"/>
</svg>
