<?xml version="1.0" encoding="utf-8"?>
<!-- Generator: Adobe Illustrator 15.0.2, SVG Export Plug-In . SVG Version: 6.00 Build 0)  -->
<!DOCTYPE svg PUBLIC "-//W3C//DTD SVG 1.1//EN" "http://www.w3.org/Graphics/SVG/1.1/DTD/svg11.dtd">
<svg version="1.1" id="Слой_1" xmlns="http://www.w3.org/2000/svg" xmlns:xlink="http://www.w3.org/1999/xlink" x="0px" y="0px"
	 width="60.182px" height="45.393px" viewBox="0 0 60.182 45.393" enable-background="new 0 0 60.182 45.393" xml:space="preserve">
<ellipse fill="#CC2845" cx="30.586" cy="14.666" rx="3.22" ry="3.074"/>
<ellipse fill="#7EB04F" cx="30.586" cy="5.079" rx="3.22" ry="3.074"/>
<ellipse fill="#CC2845" cx="30.586" cy="24.251" rx="3.22" ry="3.073"/>
<ellipse fill="#CC2845" cx="20.542" cy="14.666" rx="3.22" ry="3.074"/>
<ellipse fill="#CC2845" cx="40.63" cy="14.666" rx="3.221" ry="3.074"/>
<ellipse fill="#CC2845" cx="36.065" cy="9.436" rx="3.22" ry="3.073"/>
<ellipse fill="#CC2845" cx="36.065" cy="19.895" rx="3.22" ry="3.074"/>
<ellipse fill="#CC2845" cx="25.107" cy="19.895" rx="3.22" ry="3.074"/>
<ellipse fill="#CC2845" cx="25.107" cy="9.436" rx="3.22" ry="3.073"/>
<g>
	<g>
		<path fill="#CC2845" stroke="#CC2845" stroke-width="0.5" stroke-miterlimit="10" d="M5.72,41.528
			c-0.63,0-1.199-0.162-1.704-0.484C3.51,40.721,3.11,40.28,2.816,39.718c-0.295-0.561-0.447-1.19-0.455-1.89v-6.348
			c0-0.162,0.042-0.291,0.128-0.384c0.084-0.094,0.199-0.141,0.345-0.141c0.137,0,0.248,0.047,0.332,0.141
			c0.085,0.094,0.128,0.222,0.128,0.384v3.953c0.267-0.42,0.621-0.759,1.061-1.014c0.441-0.256,0.932-0.384,1.473-0.384
			c0.622,0,1.18,0.165,1.673,0.491c0.493,0.329,0.882,0.774,1.17,1.339c0.288,0.564,0.43,1.201,0.43,1.909
			c0,0.718-0.147,1.359-0.442,1.924c-0.294,0.564-0.697,1.01-1.207,1.336C6.943,41.364,6.366,41.528,5.72,41.528z M5.72,40.587
			c0.467,0,0.889-0.124,1.261-0.372c0.371-0.245,0.665-0.578,0.878-1c0.214-0.422,0.322-0.901,0.322-1.439
			c0-0.528-0.108-1.006-0.322-1.433c-0.214-0.425-0.507-0.761-0.878-1.002c-0.372-0.241-0.794-0.362-1.261-0.362
			c-0.462,0-0.879,0.121-1.25,0.362c-0.371,0.241-0.662,0.578-0.873,1.002c-0.209,0.427-0.314,0.904-0.314,1.433
			c0,0.538,0.105,1.017,0.314,1.439c0.211,0.422,0.502,0.756,0.873,1C4.841,40.463,5.258,40.587,5.72,40.587z"/>
		<path fill="#CC2845" stroke="#CC2845" stroke-width="0.5" stroke-miterlimit="10" d="M13.951,41.528
			c-0.648,0-1.224-0.162-1.734-0.484s-0.909-0.766-1.2-1.331c-0.291-0.565-0.438-1.206-0.438-1.925c0-0.726,0.147-1.371,0.438-1.936
			c0.291-0.564,0.689-1.008,1.2-1.332c0.51-0.322,1.086-0.484,1.734-0.484c0.646,0,1.223,0.162,1.727,0.484
			c0.505,0.324,0.903,0.768,1.194,1.332c0.291,0.565,0.441,1.21,0.449,1.936c0,0.719-0.147,1.36-0.443,1.925
			c-0.295,0.565-0.695,1.009-1.2,1.331C15.174,41.366,14.597,41.528,13.951,41.528z M13.951,40.587c0.468,0,0.888-0.122,1.261-0.364
			c0.371-0.243,0.662-0.574,0.872-0.995s0.314-0.901,0.314-1.44c0-0.538-0.104-1.019-0.314-1.445
			c-0.21-0.425-0.501-0.761-0.872-1.002c-0.374-0.241-0.793-0.362-1.261-0.362c-0.47,0-0.889,0.121-1.262,0.362
			c-0.372,0.241-0.664,0.578-0.878,1.002c-0.215,0.427-0.321,0.908-0.321,1.445c0,0.539,0.106,1.02,0.321,1.44
			c0.214,0.421,0.506,0.752,0.878,0.995C13.062,40.465,13.481,40.587,13.951,40.587z"/>
		<path fill="#CC2845" stroke="#CC2845" stroke-width="0.5" stroke-miterlimit="10" d="M18.97,41.46
			c-0.128,0-0.232-0.045-0.31-0.135c-0.076-0.089-0.116-0.197-0.12-0.322c-0.004-0.126,0.039-0.246,0.127-0.365l2.231-3.092
			l0.521,0.767l-2.122,2.986C19.224,41.406,19.115,41.46,18.97,41.46z M23.771,41.46c-0.097,0-0.175-0.018-0.237-0.055
			c-0.06-0.034-0.124-0.098-0.188-0.188l-2.099-2.959l-0.363-0.349l-2.108-2.973c-0.09-0.115-0.132-0.237-0.127-0.363
			c0.003-0.125,0.042-0.236,0.115-0.329c0.073-0.095,0.178-0.142,0.315-0.142s0.254,0.055,0.352,0.161l2.037,2.893l0.327,0.295
			l2.256,3.202c0.104,0.143,0.148,0.278,0.133,0.404c-0.017,0.125-0.068,0.223-0.152,0.296C23.947,41.425,23.86,41.46,23.771,41.46z
			 M21.807,37.963l-0.594-0.673l2.097-2.944c0.058-0.091,0.121-0.154,0.189-0.189c0.068-0.037,0.138-0.055,0.212-0.055
			c0.137,0,0.243,0.047,0.315,0.142c0.072,0.093,0.106,0.207,0.103,0.336c-0.004,0.13-0.046,0.252-0.126,0.37L21.807,37.963z"/>
		<path fill="#CC2845" stroke="#CC2845" stroke-width="0.5" stroke-miterlimit="10" d="M29.142,41.528
			c-0.629,0-1.198-0.162-1.704-0.484c-0.504-0.322-0.905-0.764-1.2-1.325c-0.295-0.561-0.446-1.19-0.455-1.89v-6.348
			c0-0.162,0.043-0.291,0.127-0.384c0.084-0.094,0.2-0.141,0.346-0.141c0.137,0,0.248,0.047,0.333,0.141
			c0.084,0.094,0.126,0.222,0.126,0.384v3.953c0.267-0.42,0.621-0.759,1.062-1.014c0.44-0.256,0.932-0.384,1.473-0.384
			c0.623,0,1.18,0.165,1.672,0.491c0.493,0.329,0.884,0.774,1.17,1.339c0.288,0.564,0.432,1.201,0.432,1.909
			c0,0.718-0.147,1.359-0.443,1.924c-0.295,0.564-0.697,1.01-1.207,1.336C30.366,41.364,29.788,41.528,29.142,41.528z
			 M29.142,40.587c0.469,0,0.889-0.124,1.26-0.372c0.372-0.245,0.665-0.578,0.88-1c0.214-0.422,0.321-0.901,0.321-1.439
			c0-0.528-0.107-1.006-0.321-1.433c-0.215-0.425-0.508-0.761-0.88-1.002c-0.371-0.241-0.792-0.362-1.26-0.362
			c-0.46,0-0.877,0.121-1.249,0.362c-0.372,0.241-0.662,0.578-0.875,1.002c-0.209,0.427-0.313,0.904-0.313,1.433
			c0,0.538,0.104,1.017,0.313,1.439c0.212,0.422,0.502,0.756,0.875,1C28.265,40.463,28.682,40.587,29.142,40.587z"/>
		<path fill="#CC2845" stroke="#CC2845" stroke-width="0.5" stroke-miterlimit="10" d="M37.361,41.528
			c-0.654,0-1.233-0.159-1.739-0.479c-0.506-0.317-0.9-0.759-1.188-1.324c-0.287-0.565-0.431-1.212-0.431-1.938
			c0-0.735,0.136-1.382,0.407-1.943c0.271-0.56,0.644-1.001,1.122-1.325c0.478-0.322,1.026-0.484,1.648-0.484
			c0.613,0,1.15,0.154,1.607,0.464c0.455,0.309,0.81,0.739,1.061,1.285c0.25,0.547,0.375,1.17,0.375,1.87
			c0,0.143-0.04,0.258-0.122,0.343c-0.081,0.086-0.185,0.128-0.315,0.128h-5.152v-0.861h5.25l-0.522,0.418
			c0.009-0.521-0.077-0.987-0.253-1.4c-0.179-0.412-0.432-0.734-0.759-0.969c-0.326-0.232-0.717-0.349-1.169-0.349
			c-0.461,0-0.864,0.121-1.211,0.364c-0.348,0.242-0.617,0.575-0.807,1c-0.19,0.426-0.285,0.915-0.285,1.459
			c0,0.549,0.106,1.033,0.321,1.453c0.214,0.422,0.506,0.752,0.878,0.996c0.373,0.243,0.801,0.363,1.285,0.363
			c0.291,0,0.584-0.056,0.879-0.167c0.295-0.112,0.532-0.253,0.708-0.423c0.09-0.08,0.191-0.123,0.305-0.128
			c0.113-0.005,0.21,0.029,0.291,0.1c0.104,0.107,0.159,0.225,0.164,0.351c0.002,0.125-0.043,0.232-0.141,0.322
			c-0.267,0.251-0.606,0.459-1.018,0.625C38.137,41.445,37.741,41.528,37.361,41.528z"/>
		<path fill="#CC2845" stroke="#CC2845" stroke-width="0.5" stroke-miterlimit="10" d="M42.26,41.46
			c-0.146,0-0.258-0.045-0.34-0.135c-0.08-0.089-0.121-0.214-0.121-0.375v-6.337c0-0.16,0.041-0.286,0.121-0.376
			c0.082-0.09,0.195-0.135,0.34-0.135c0.145,0,0.258,0.045,0.337,0.135c0.083,0.09,0.124,0.216,0.124,0.376v6.337
			c0,0.16-0.04,0.285-0.124,0.375C42.518,41.415,42.405,41.46,42.26,41.46z M42.187,36.927c0.024-0.556,0.156-1.051,0.394-1.493
			c0.239-0.438,0.55-0.784,0.933-1.035c0.385-0.251,0.812-0.378,1.28-0.378c0.372,0,0.659,0.059,0.861,0.176
			c0.201,0.116,0.278,0.286,0.23,0.51c-0.032,0.135-0.087,0.225-0.165,0.27c-0.076,0.044-0.17,0.063-0.28,0.053
			c-0.107-0.009-0.231-0.017-0.369-0.026c-0.452-0.044-0.854,0.007-1.206,0.154s-0.63,0.375-0.836,0.679
			c-0.206,0.305-0.309,0.668-0.309,1.089H42.187z"/>
		<path fill="#CC2845" stroke="#CC2845" stroke-width="0.5" stroke-miterlimit="10" d="M47.811,41.46
			c-0.145,0-0.258-0.045-0.338-0.135c-0.08-0.089-0.121-0.214-0.121-0.375v-6.337c0-0.16,0.041-0.286,0.121-0.376
			c0.081-0.09,0.194-0.135,0.338-0.135c0.146,0,0.261,0.045,0.34,0.135c0.081,0.09,0.121,0.216,0.121,0.376v6.337
			c0,0.16-0.04,0.285-0.121,0.375C48.072,41.415,47.957,41.46,47.811,41.46z M47.74,36.927c0.025-0.556,0.156-1.051,0.393-1.493
			c0.238-0.438,0.551-0.784,0.933-1.035c0.384-0.251,0.812-0.378,1.281-0.378c0.367,0,0.657,0.059,0.86,0.176
			c0.202,0.116,0.278,0.286,0.23,0.51c-0.032,0.135-0.089,0.225-0.164,0.27c-0.08,0.044-0.171,0.063-0.279,0.053
			c-0.109-0.009-0.233-0.017-0.369-0.026c-0.454-0.044-0.854,0.007-1.208,0.154c-0.352,0.147-0.629,0.375-0.835,0.679
			c-0.205,0.305-0.311,0.668-0.311,1.089H47.74z"/>
		<path fill="#CC2845" stroke="#CC2845" stroke-width="0.5" stroke-miterlimit="10" d="M55.387,41.232
			c-0.119,0.063-0.231,0.073-0.337,0.034c-0.105-0.04-0.19-0.129-0.256-0.262l-2.703-6.213c-0.057-0.135-0.063-0.262-0.024-0.378
			c0.043-0.116,0.122-0.205,0.242-0.269c0.123-0.063,0.237-0.074,0.341-0.034c0.105,0.04,0.186,0.128,0.244,0.262l2.652,6.215
			c0.065,0.134,0.086,0.26,0.063,0.376C55.583,41.08,55.509,41.168,55.387,41.232z M54.043,44.661c-0.063,0-0.137-0.018-0.217-0.053
			c-0.273-0.135-0.354-0.35-0.231-0.646l3.914-9.577c0.123-0.288,0.317-0.369,0.583-0.242c0.275,0.125,0.352,0.336,0.231,0.631
			l-3.93,9.577C54.314,44.558,54.198,44.661,54.043,44.661z"/>
	</g>
</g>
</svg>
