<?xml version="1.0" encoding="utf-8"?>
<!-- Generator: Adobe Illustrator 15.0.2, SVG Export Plug-In . SVG Version: 6.00 Build 0)  -->
<!DOCTYPE svg PUBLIC "-//W3C//DTD SVG 1.1//EN" "http://www.w3.org/Graphics/SVG/1.1/DTD/svg11.dtd">
<svg version="1.1" id="Слой_1" xmlns="http://www.w3.org/2000/svg" xmlns:xlink="http://www.w3.org/1999/xlink" x="0px" y="0px"
	 width="34.083px" height="34px" viewBox="0 0 34.083 34" enable-background="new 0 0 34.083 34" xml:space="preserve">
<g id="phone_call">
	<g>
		<path fill="none" stroke-width="2" stroke-linecap="round" stroke-linejoin="round" stroke-miterlimit="10" d="
			M8.614,25.549c-1.357-1.359-2.656-2.902-3.786-4.455c-1.346-1.856-2.718-3.897-3.355-6.125C0.965,13.19,0.917,11.25,1.552,9.512
			c0.652-1.791,2.535-4.155,4.681-3.926c1.869,0.198,3.437,1.989,4.227,3.573c0.366,0.735,0.615,1.595,0.347,2.371
			c-0.362,1.05-1.516,1.59-2.151,2.499c-0.811,1.157-0.561,2.647,0.139,3.793c1.212,1.983,2.298,3.224,3.282,4.208
			c0.984,0.984,2.225,2.07,4.209,3.28c1.144,0.702,2.635,0.95,3.792,0.142c0.908-0.637,1.449-1.79,2.497-2.151
			c0.776-0.267,1.638-0.021,2.37,0.346c1.585,0.79,3.376,2.358,3.574,4.228c0.229,2.146-2.135,4.027-3.926,4.681
			c-1.738,0.632-3.679,0.588-5.456,0.079c-2.229-0.638-4.271-2.009-6.123-3.354C11.458,28.147,9.971,26.903,8.614,25.549z"/>
		
			<line fill="none" stroke-width="2" stroke-linecap="round" stroke-linejoin="round" stroke-miterlimit="10" x1="7.793" y1="11.858" x2="8.827" y2="12.89"/>
		
			<line fill="none" stroke-width="2" stroke-linecap="round" stroke-linejoin="round" stroke-miterlimit="10" x1="21.214" y1="25.28" x2="22.247" y2="26.311"/>
	</g>
	<g>
		<path fill="none" stroke-width="2" stroke-linecap="round" stroke-linejoin="round" stroke-miterlimit="10" d="
			M13.417,2.251c1.748-0.791,3.689-1.234,5.733-1.234c7.698,0,13.936,6.24,13.936,13.938c0,2.045-0.442,3.984-1.234,5.734"/>
		<path fill="none" stroke-width="2" stroke-linecap="round" stroke-linejoin="round" stroke-miterlimit="10" d="
			M27.539,16.375c0.078-0.464,0.128-0.935,0.128-1.42c0-4.697-3.82-8.517-8.517-8.517c-0.484,0-0.958,0.05-1.421,0.127"/>
	</g>
</g>
</svg>
