<?xml version="1.0" encoding="utf-8"?>
<!-- Generator: Adobe Illustrator 15.0.2, SVG Export Plug-In . SVG Version: 6.00 Build 0)  -->
<!DOCTYPE svg PUBLIC "-//W3C//DTD SVG 1.1//EN" "http://www.w3.org/Graphics/SVG/1.1/DTD/svg11.dtd">
<svg version="1.1" id="Слой_1" xmlns="http://www.w3.org/2000/svg" xmlns:xlink="http://www.w3.org/1999/xlink" x="0px" y="0px"
	 width="41.959px" height="42px" viewBox="0 0 41.959 42" enable-background="new 0 0 41.959 42" xml:space="preserve">
<g id="phone_call">
	<g>
		<path fill="none" stroke-width="3" stroke-linecap="round" stroke-linejoin="round" stroke-miterlimit="10" d="
			M10.677,31.342c-1.651-1.649-3.23-3.524-4.602-5.413c-1.637-2.254-3.304-4.733-4.077-7.442c-0.617-2.161-0.676-4.52,0.095-6.631
			c0.793-2.177,3.08-5.049,5.689-4.771c2.271,0.241,4.177,2.417,5.136,4.342c0.446,0.894,0.747,1.938,0.421,2.881
			c-0.439,1.273-1.84,1.932-2.613,3.035c-0.986,1.406-0.682,3.218,0.169,4.61c1.474,2.411,2.792,3.917,3.989,5.115
			c1.195,1.194,2.702,2.515,5.114,3.986c1.391,0.854,3.202,1.154,4.611,0.169c1.102-0.771,1.76-2.175,3.032-2.611
			c0.944-0.325,1.987-0.024,2.881,0.42c1.927,0.96,4.104,2.866,4.345,5.137c0.275,2.607-2.593,4.896-4.771,5.689
			c-2.113,0.769-4.47,0.715-6.631,0.096c-2.71-0.774-5.19-2.443-7.441-4.076C14.134,34.501,12.325,32.99,10.677,31.342z"/>
		
			<line fill="none" stroke-width="3" stroke-linecap="round" stroke-linejoin="round" stroke-miterlimit="10" x1="9.679" y1="14.705" x2="10.935" y2="15.959"/>
		
			<line fill="none" stroke-width="3" stroke-linecap="round" stroke-linejoin="round" stroke-miterlimit="10" x1="25.99" y1="31.016" x2="27.245" y2="32.271"/>
	</g>
	<g>
		<path fill="none" stroke-width="3" stroke-linecap="round" stroke-linejoin="round" stroke-miterlimit="10" d="
			M16.513,3.031c2.125-0.962,4.483-1.5,6.967-1.5c9.355,0,16.938,7.583,16.938,16.938c0,2.485-0.54,4.842-1.502,6.968"/>
		<path fill="none" stroke-width="3" stroke-linecap="round" stroke-linejoin="round" stroke-miterlimit="10" d="
			M33.677,20.195c0.094-0.563,0.155-1.136,0.155-1.726c0-5.708-4.644-10.35-10.352-10.35c-0.587,0-1.163,0.061-1.726,0.154"/>
	</g>
</g>
</svg>
