<?xml version="1.0" encoding="utf-8"?>
<!-- Generator: Adobe Illustrator 15.0.2, SVG Export Plug-In . SVG Version: 6.00 Build 0)  -->
<!DOCTYPE svg PUBLIC "-//W3C//DTD SVG 1.1//EN" "http://www.w3.org/Graphics/SVG/1.1/DTD/svg11.dtd">
<svg version="1.1" id="Слой_1" xmlns="http://www.w3.org/2000/svg" xmlns:xlink="http://www.w3.org/1999/xlink" x="0px" y="0px"
	 width="90.649px" height="47px" viewBox="0 0 90.649 47" enable-background="new 0 0 90.649 47" xml:space="preserve">
<path fill="none" stroke-width="3" stroke-miterlimit="3" d="M58.838,42.239c0,1.833,1.486,3.32,3.319,3.32h23.943
	c1.832,0,3.32-1.486,3.32-3.32l-1.91-19.999c0-1.833-1.485-3.321-3.32-3.321H64.069c-1.835,0-3.321,1.488-3.321,3.321L58.838,42.239
	z"/>
<path fill="none" stroke-width="3" stroke-miterlimit="3" d="M65.979,11.958c0,1.556,1.261,2.817,2.816,2.817
	h10.667c1.557,0,2.816-1.261,2.816-2.817L81.47,4.256c0-1.555-1.261-2.816-2.816-2.816h-9.048c-1.555,0-2.817,1.261-2.817,2.816
	L65.979,11.958z"/>
<line fill="none" stroke-width="3" stroke-linecap="round" stroke-linejoin="round" stroke-miterlimit="22.9256" stroke-dasharray="2,4" x1="68.217" y1="24.798" x2="66.706" y2="40.946"/>
<line fill="none" stroke-width="3" stroke-linecap="round" stroke-linejoin="round" stroke-miterlimit="22.9256" stroke-dasharray="2,4" x1="80.027" y1="24.798" x2="81.771" y2="40.946"/>
<g>
	<g>
		<g>
			<g>
				<g>
					<g>
						<path d="M40.413,29.756c1.938,0,3.509,1.572,3.509,3.51s-1.57,3.512-3.509,3.512c-1.938,0-3.508-1.574-3.508-3.512
							S38.476,29.756,40.413,29.756 M40.413,27.986c-2.909,0-5.278,2.369-5.278,5.279c0,2.908,2.369,5.279,5.278,5.279
							c2.91,0,5.277-2.371,5.277-5.279C45.69,30.355,43.324,27.986,40.413,27.986L40.413,27.986z"/>
					</g>
				</g>
			</g>
		</g>
		<g>
			<g>
				<g>
					<g>
						<path d="M10.596,29.756c1.938,0,3.509,1.572,3.509,3.51s-1.571,3.512-3.509,3.512c-1.938,0-3.509-1.574-3.509-3.512
							C7.086,31.328,8.657,29.756,10.596,29.756 M10.596,27.986c-2.911,0-5.278,2.369-5.278,5.279c0,2.908,2.368,5.279,5.278,5.279
							c2.91,0,5.278-2.371,5.278-5.279C15.874,30.355,13.505,27.986,10.596,27.986L10.596,27.986z"/>
					</g>
				</g>
			</g>
		</g>
		<g>
			<path d="M32.058,12.756c3.564,0.333,5.346,3.229,5.346,3.229L41.414,22l4.678,2.225c1.669,0.893,2.45,3.344,2.45,3.344
				l0.605,0.834c0.185,0.254,0.285,0.561,0.285,0.875v1.088c0,0.416-0.176,0.814-0.484,1.098l-1.762,1.615
				c-0.275,0.252-0.634,0.395-1.006,0.395l-0.368-0.063c0.01-0.115,0.018-0.232,0.018-0.352c0-2.324-1.998-5.059-5.417-5.059
				c-0.018,0-0.036,0-0.055,0.004c-2.773,0.021-5.411,2.777-5.411,5.115c0,0.119,0.01,0.236,0.02,0.354h-0.125H15.963
				c0.01-0.117,0.018-0.234,0.018-0.354c0-2.338-2.636-5.094-5.412-5.115C10.56,28,10.548,28,10.538,28
				c-2.331,0-5.026,2.143-5.026,4.469c0,0.119-0.169,0.887-0.159,1.004H3.437c-1.309-1.082-1.606-2.902-1.665-3.926
				c-0.027-0.459,0.156-0.898,0.497-1.201c0.317-0.283,0.499-0.686,0.499-1.111V16.876c0.009-0.03,0.017-0.062,0.025-0.094
				c0.631-2.391,2.837-4.027,5.312-4.027h23.954 M32.142,10.986h-0.083H8.104c-3.303,0-6.19,2.197-7.021,5.346l-0.03,0.115L1,16.659
				v0.217v10.233c-0.688,0.664-1.05,1.578-0.995,2.537c0.074,1.291,0.473,3.68,2.307,5.189l0.49,0.404h0.634h1.917h1.921
				L7.13,33.498c0.014-0.074,0.032-0.17,0.049-0.26c0.066-0.354,0.102-0.551,0.102-0.77c0-1.236,1.765-2.697,3.257-2.697
				c1.831,0.014,3.674,1.959,3.674,3.346c0,0.07-0.006,0.141-0.011,0.207l-0.158,1.916h1.92h18.879h0.124h1.921l-0.16-1.916
				c-0.005-0.068-0.011-0.137-0.011-0.207c0-1.387,1.843-3.332,3.658-3.346h0.039c2.488,0,3.646,1.961,3.646,3.287
				c0,0.07-0.006,0.139-0.012,0.209L43.913,34.9l1.62,0.26l0.368,0.057l0.139,0.023h0.139c0.819,0,1.601-0.305,2.203-0.857
				l1.763-1.615c0.673-0.617,1.056-1.49,1.056-2.402v-1.088c0-0.693-0.213-1.357-0.621-1.916l-0.454-0.625
				c-0.313-0.834-1.293-3.053-3.2-4.07l-0.035-0.021l-0.038-0.017l-4.237-2.017l-3.73-5.594c-0.27-0.42-2.468-3.631-6.66-4.024
				L32.142,10.986L32.142,10.986z"/>
		</g>
	</g>
	<g>
		<polygon points="42.4,22.557 29.712,22.557 26.936,12.342 28.643,11.877 31.064,20.788 42.4,20.788 		"/>
	</g>
	<g>
		<path d="M34.287,26.727h-3.453c-0.487,0-0.883-0.396-0.883-0.887c0-0.486,0.396-0.885,0.883-0.885h3.453
			c0.489,0,0.884,0.398,0.884,0.885C35.17,26.33,34.775,26.727,34.287,26.727z"/>
	</g>
</g>
</svg>
