<?xml version="1.0" encoding="utf-8"?>
<!-- Generator: Adobe Illustrator 15.0.2, SVG Export Plug-In . SVG Version: 6.00 Build 0)  -->
<!DOCTYPE svg PUBLIC "-//W3C//DTD SVG 1.1//EN" "http://www.w3.org/Graphics/SVG/1.1/DTD/svg11.dtd">
<svg version="1.1" id="Слой_1" xmlns="http://www.w3.org/2000/svg" xmlns:xlink="http://www.w3.org/1999/xlink" x="0px" y="0px"
	 width="77px" height="42px" viewBox="0 0 77 42" enable-background="new 0 0 77 42" xml:space="preserve">
<g>
	<g>
		<g>
			<g>
				<g>
					<g>
						<path d="M60.612,28.153c2.906,0,5.263,2.354,5.263,5.261c0,2.908-2.356,5.265-5.263,5.265
							s-5.263-2.356-5.263-5.265C55.35,30.508,57.706,28.153,60.612,28.153 M60.612,25.498c-4.363,0-7.916,3.553-7.916,7.916
							c0,4.365,3.553,7.918,7.916,7.918c4.365,0,7.916-3.553,7.916-7.918C68.528,29.051,64.978,25.498,60.612,25.498L60.612,25.498z
							"/>
					</g>
				</g>
			</g>
		</g>
		<g>
			<g>
				<g>
					<g>
						<path d="M15.891,28.153c2.907,0,5.263,2.354,5.263,5.261c0,2.908-2.356,5.265-5.263,5.265
							c-2.906,0-5.262-2.356-5.262-5.265C10.628,30.508,12.984,28.153,15.891,28.153 M15.891,25.498
							c-4.365,0-7.916,3.553-7.916,7.916c0,4.365,3.551,7.918,7.916,7.918c4.365,0,7.917-3.553,7.917-7.918
							C23.807,29.051,20.256,25.498,15.891,25.498L15.891,25.498z"/>
					</g>
				</g>
			</g>
		</g>
		<g>
			<path d="M48.081,2.654C53.427,3.155,56.1,7.498,56.1,7.498l6.013,9.019l7.017,3.341
				c2.504,1.337,3.675,5.011,3.675,5.011l0.909,1.249c0.276,0.383,0.426,0.843,0.426,1.316v1.632c0,0.624-0.263,1.221-0.725,1.644
				l-2.643,2.425c-0.413,0.377-0.949,0.588-1.511,0.588l-0.55-0.089c0.014-0.175,0.025-0.35,0.025-0.528
				c0-3.487-2.994-7.586-8.122-7.586c-0.027,0-0.055,0-0.082,0.002c-4.16,0.033-8.117,4.167-8.117,7.673
				c0,0.179,0.015,0.354,0.03,0.528h-0.187H23.942c0.015-0.175,0.027-0.35,0.027-0.528c0-3.506-3.954-7.64-8.117-7.673
				c-0.015-0.002-0.032-0.002-0.047-0.002c-3.495,0-7.539,3.211-7.539,6.7c0,0.181-0.253,1.328-0.238,1.503H5.154
				c-1.963-1.618-2.409-4.353-2.497-5.886c-0.04-0.686,0.234-1.346,0.746-1.801c0.476-0.425,0.749-1.029,0.749-1.67V8.834
				c0.012-0.046,0.024-0.093,0.037-0.14c0.947-3.587,4.256-6.041,7.966-6.041H48.081 M48.207,0h-0.126H12.155
				C7.201,0,2.87,3.297,1.624,8.017L1.578,8.192L1.499,8.508v0.326v15.35c-1.032,0.992-1.574,2.367-1.491,3.805
				c0.111,1.934,0.709,5.516,3.46,7.782l0.734,0.604h0.952h2.875h2.88l-0.215-2.609c0.021-0.116,0.047-0.258,0.073-0.393
				c0.099-0.532,0.153-0.827,0.153-1.153c0-1.854,2.648-4.047,4.885-4.047c2.746,0.023,5.51,2.939,5.51,5.021
				c0,0.104-0.009,0.208-0.017,0.31l-0.237,2.871h2.88h28.316h0.187h2.881l-0.24-2.871c-0.008-0.104-0.016-0.206-0.016-0.31
				c0-2.082,2.764-4.998,5.485-5.021h0.059c3.731,0,5.469,2.943,5.469,4.933c0,0.104-0.01,0.206-0.018,0.311l-0.202,2.448
				l2.428,0.39l0.552,0.088l0.208,0.033h0.21c1.228,0,2.399-0.455,3.303-1.284l2.644-2.425c1.008-0.923,1.585-2.235,1.585-3.6
				v-1.632c0-1.041-0.322-2.035-0.935-2.875l-0.68-0.938c-0.468-1.251-1.938-4.578-4.8-6.105l-0.053-0.03l-0.057-0.025l-6.354-3.025
				l-5.595-8.39c-0.404-0.63-3.701-5.445-9.989-6.035L48.207,0L48.207,0z"/>
		</g>
	</g>
	<g>
		<polygon points="63.592,17.354 44.563,17.354 40.399,2.033 42.96,1.337 46.591,14.701 63.592,14.701 		"/>
	</g>
	<g>
		<path d="M51.424,23.606h-5.179c-0.732,0-1.325-0.595-1.325-1.327c0-0.731,0.593-1.326,1.325-1.326h5.179
			c0.732,0,1.325,0.595,1.325,1.326C52.749,23.012,52.156,23.606,51.424,23.606z"/>
	</g>
</g>
</svg>
