<?xml version="1.0" encoding="utf-8"?>
<!-- Generator: Adobe Illustrator 15.0.2, SVG Export Plug-In . SVG Version: 6.00 Build 0)  -->
<!DOCTYPE svg PUBLIC "-//W3C//DTD SVG 1.1//EN" "http://www.w3.org/Graphics/SVG/1.1/DTD/svg11.dtd">
<svg version="1.1" id="Слой_1" xmlns="http://www.w3.org/2000/svg" xmlns:xlink="http://www.w3.org/1999/xlink" x="0px" y="0px"
	 width="30.5px" height="27px" viewBox="0 0 30.5 27" enable-background="new 0 0 30.5 27" xml:space="preserve">
<path fill="none" stroke-width="1.44" stroke-linecap="round" stroke-linejoin="round" stroke-miterlimit="22.9256" d="
	M13.297,21.143c1.417,0,2.566,1.15,2.566,2.566c0,1.417-1.149,2.565-2.566,2.565c-1.417,0-2.564-1.148-2.564-2.565
	C10.732,22.293,11.88,21.143,13.297,21.143L13.297,21.143z"/>
<path fill="none" stroke-width="1.44" stroke-linecap="round" stroke-linejoin="round" stroke-miterlimit="22.9256" d="
	M23.168,21.143c1.415,0,2.565,1.15,2.565,2.566c0,1.417-1.15,2.565-2.565,2.565c-1.416,0-2.565-1.148-2.565-2.565
	C20.603,22.293,21.752,21.143,23.168,21.143L23.168,21.143z"/>
<polyline fill="none" stroke-width="1.44" stroke-linecap="round" stroke-linejoin="round" stroke-miterlimit="22.9256" points="
	0.719,0.828 5.932,0.828 10.765,16.618 26.941,16.618 "/>
<line fill="none" stroke-width="1.44" stroke-linecap="round" stroke-linejoin="round" stroke-miterlimit="22.9256" x1="9.85" y1="12.469" x2="28.639" y2="12.469"/>
<line fill="none" stroke-width="1.44" stroke-linecap="round" stroke-linejoin="round" stroke-miterlimit="22.9256" x1="8.605" y1="8.313" x2="29.705" y2="8.313"/>
</svg>
