<?xml version="1.0" encoding="utf-8"?>
<!-- Generator: Adobe Illustrator 15.0.2, SVG Export Plug-In . SVG Version: 6.00 Build 0)  -->
<!DOCTYPE svg PUBLIC "-//W3C//DTD SVG 1.1//EN" "http://www.w3.org/Graphics/SVG/1.1/DTD/svg11.dtd">
<svg version="1.1" id="Слой_1" xmlns="http://www.w3.org/2000/svg" xmlns:xlink="http://www.w3.org/1999/xlink" x="0px" y="0px"
	 width="47.416px" height="42px" viewBox="0 0 47.416 42" enable-background="new 0 0 47.416 42" xml:space="preserve">
<path fill="none" stroke-width="3" stroke-linecap="round" stroke-linejoin="round" stroke-miterlimit="22.9256" d="
	M20.71,32.583c2.156,0,3.905,1.745,3.905,3.904c0,2.156-1.749,3.903-3.905,3.903c-2.157,0-3.905-1.747-3.905-3.903
	C16.806,34.328,18.554,32.583,20.71,32.583L20.71,32.583z"/>
<path fill="none" stroke-width="3" stroke-linecap="round" stroke-linejoin="round" stroke-miterlimit="22.9256" d="
	M35.731,32.583c2.156,0,3.905,1.745,3.905,3.904c0,2.156-1.749,3.903-3.905,3.903s-3.905-1.747-3.905-3.903
	C31.826,34.328,33.575,32.583,35.731,32.583L35.731,32.583z"/>
<polyline fill="none" stroke-width="3" stroke-linecap="round" stroke-linejoin="round" stroke-miterlimit="22.9256" points="
	1.563,1.659 9.498,1.659 16.855,25.693 41.475,25.693 "/>
<line fill="none" stroke-width="3" stroke-linecap="round" stroke-linejoin="round" stroke-miterlimit="22.9256" x1="15.462" y1="19.378" x2="44.057" y2="19.378"/>
<line fill="none" stroke-width="3" stroke-linecap="round" stroke-linejoin="round" stroke-miterlimit="22.9256" x1="13.567" y1="13.05" x2="45.686" y2="13.05"/>
</svg>
