<?xml version="1.0" encoding="utf-8"?>
<!-- Generator: Adobe Illustrator 15.0.2, SVG Export Plug-In . SVG Version: 6.00 Build 0)  -->
<!DOCTYPE svg PUBLIC "-//W3C//DTD SVG 1.1//EN" "http://www.w3.org/Graphics/SVG/1.1/DTD/svg11.dtd">
<svg version="1.1" id="Слой_1" xmlns="http://www.w3.org/2000/svg" xmlns:xlink="http://www.w3.org/1999/xlink" x="0px" y="0px"
	 width="47px" height="41.492px" viewBox="0 0 47 41.492" enable-background="new 0 0 47 41.492" xml:space="preserve">
<path fill="none" stroke-width="2" stroke-linecap="round" stroke-linejoin="round" stroke-miterlimit="22.9256" d="
	M1.003,24.413h45.005V1.007H1.003V24.413L1.003,24.413z M23.506,20.33c3.165,0,5.729-3.41,5.729-7.619
	c0-4.207-2.564-7.617-5.729-7.617c-3.164,0-5.73,3.411-5.73,7.617C17.776,16.92,20.342,20.33,23.506,20.33L23.506,20.33z
	 M9.2,23.385c0-3.891-3.162-7.044-7.064-7.044 M37.811,23.385c0-3.891,3.163-7.044,7.063-7.044 M9.2,2.039
	c0,3.891-3.162,7.045-7.064,7.045 M37.811,2.039c0,3.891,3.163,7.045,7.063,7.045"/>
<path fill-rule="evenodd" clip-rule="evenodd" stroke-width="2" stroke-linecap="round" stroke-linejoin="round" stroke-miterlimit="22.9256" d="
	M12.034,14.188c0.817,0,1.481-0.661,1.481-1.478c0-0.815-0.664-1.476-1.481-1.476c-0.818,0-1.481,0.661-1.481,1.476
	C10.552,13.527,11.215,14.188,12.034,14.188L12.034,14.188z"/>
<path fill-rule="evenodd" clip-rule="evenodd" stroke-width="2" stroke-linecap="round" stroke-linejoin="round" stroke-miterlimit="22.9256" d="
	M34.956,14.188c0.818,0,1.481-0.661,1.481-1.478c0-0.815-0.663-1.476-1.481-1.476c-0.817,0-1.481,0.661-1.481,1.476
	C33.475,13.527,34.139,14.188,34.956,14.188L34.956,14.188z"/>
<line fill="none" stroke-width="2" stroke-linecap="round" stroke-linejoin="round" stroke-miterlimit="22.9256" x1="1.164" y1="29.867" x2="45.847" y2="29.867"/>
<line fill="none" stroke-width="2" stroke-linecap="round" stroke-linejoin="round" stroke-miterlimit="22.9256" x1="1.164" y1="35.132" x2="45.847" y2="35.132"/>
<line fill="none" stroke-width="2" stroke-linecap="round" stroke-linejoin="round" stroke-miterlimit="22.9256" x1="1.164" y1="40.398" x2="45.847" y2="40.398"/>
</svg>
