<?xml version="1.0" encoding="utf-8"?>
<!-- Generator: Adobe Illustrator 15.0.2, SVG Export Plug-In . SVG Version: 6.00 Build 0)  -->
<!DOCTYPE svg PUBLIC "-//W3C//DTD SVG 1.1//EN" "http://www.w3.org/Graphics/SVG/1.1/DTD/svg11.dtd">
<svg version="1.1" xmlns="http://www.w3.org/2000/svg" xmlns:xlink="http://www.w3.org/1999/xlink" x="0px" y="0px"
	 width="100.001px" height="48.052px" viewBox="0 0 100.001 48.052" enable-background="new 0 0 100.001 48.052"
	 xml:space="preserve">
<g id="Слой_2">
	<g>
		<path fill="#E21C42" d="M39.86,12.553c0.478,0.272,0.872,0.945,0.875,1.495l0.123,19.04c0.003,0.55-0.382,1.228-0.856,1.505
			L23.574,44.22c-0.475,0.278-1.254,0.283-1.732,0.011L5.291,34.817c-0.478-0.272-0.872-0.945-0.875-1.495L4.292,14.282
			c-0.003-0.55,0.382-1.228,0.856-1.505L21.577,3.15c0.475-0.278,1.254-0.283,1.732-0.011L39.86,12.553z"/>
	</g>
	<path fill="#FFFFFF" d="M20.367,25.062l0.109,14.47c0,0,1.457,1.73,2.228,1.732c0.747,0.002,2.072-1.779,2.072-1.779V25.208
		c0,0,0.046-1.564-0.494-2.551c-0.453-0.828-1.828-1.642-1.828-1.642L5.083,10.833l-2.324,3.719L20.367,25.062z"/>
	<path fill="#FFFFFF" d="M27.793,18.629c0,0-0.683,2.156-0.272,2.809c0.397,0.632,2.612,0.799,2.612,0.799l13.326-8.434
		l-2.343-3.703"/>
</g>
<g id="Слой_3">
	<path d="M61.605,11.625h4.063v22c0,0-5.042,1.288-8.469,0.809c-3.406-0.476-5.48-2.903-6.156-5.872
		c-0.739-3.248-0.23-5.126,0.906-6.969c0.906-1.469,2.42-2.494,4.302-2.96c3.281-0.813,5.354,0.116,5.354,0.116V11.625z"/>
	<path fill="#FFFFFF" d="M61.458,22.458v8.292c0,0-3.008,0.473-4.192-0.188c-1.234-0.688-2.265-1.593-2.349-3.89
		s0.567-3.657,2.333-4.436c1.12-0.494,2.019-0.37,2.894-0.245S61.458,22.458,61.458,22.458z"/>
	<path d="M67.875,40.333H72V22.417c0,0,1.625-0.537,3.542-0.18c1.951,0.363,2.99,1.608,3.074,3.65s-0.314,2.769-1.116,3.644
		c-0.903,0.986-3.375,1.281-3.375,1.281v3.728c0,0,3.563-0.129,5.438-1.462S82,30.583,82.417,28.5s0.458-5.458-1.292-7.375
		s-3.707-2.583-5.666-2.792s-3.876,0.057-4.959,0.307s-2.625,0.875-2.625,0.875V40.333z"/>
	<path d="M98.75,11.656v22.031c0,0-2.344,0.719-4.5,0.813s-5.5,0-7.531-1.75s-2.938-4.188-2.688-7.125s1.656-4.969,3.125-5.969
		s3.766-1.5,5.625-1.281c1.506,0.177,1.91,0.458,1.91,0.458l0.059-7.177H98.75z"/>
	<path fill="#FFFFFF" d="M94.719,22.469v8.297c0,0-1.031,0.328-2.625,0.203s-2.75-0.938-3.438-2.219s-0.754-2.908-0.375-4.031
		c0.453-1.344,1.424-2.26,2.594-2.656c0.969-0.328,1.565-0.253,2.688-0.047C94.328,22.156,94.719,22.469,94.719,22.469z"/>
</g>
</svg>
