<?xml version="1.0" encoding="utf-8"?>
<!-- Generator: Adobe Illustrator 15.0.2, SVG Export Plug-In . SVG Version: 6.00 Build 0)  -->
<!DOCTYPE svg PUBLIC "-//W3C//DTD SVG 1.1//EN" "http://www.w3.org/Graphics/SVG/1.1/DTD/svg11.dtd">
<svg version="1.1" id="Слой_1" xmlns="http://www.w3.org/2000/svg" xmlns:xlink="http://www.w3.org/1999/xlink" x="0px" y="0px"
	 width="34px" height="35px" viewBox="0 0 34 35" enable-background="new 0 0 34 35" xml:space="preserve">
<g>
	<path fill="none" stroke-width="2" stroke-miterlimit="10" d="M6.953,32.473c0,0,8.691,0,10.962,0
		c1.743,0,8.673-2.234,9.362-2.722c0.662-0.469,4.752-5.134,5.762-6.519c-0.271-0.66-1.262-1.29-2.646-1.128
		c-1.599,0.185-3.604,3.221-3.669,3.282l-4.881,1.103c-0.156-0.035-1.891-0.589-3.533-1.016c-0.571-0.15-1.499-1.419-1.499-1.52
		c0-0.599,0.215-0.578,1.231-1.107c0.67-0.35,2.764-0.726,3.497-2.407c0.67-1.532,0.238-3.029-2.499-1.942
		c-1.131,0.451-5.986,1.842-8.082,2.692c-0.9,0.532-1.876,1.871-2.545,2.512H6.953"/>
	<circle fill="none" stroke-width="2" stroke-miterlimit="10" cx="28.149" cy="3.968" r="2.923"/>
	<circle fill="none" stroke-width="2" stroke-miterlimit="10" cx="18.646" cy="10.546" r="2.923"/>
	<circle fill="none" stroke-width="2" stroke-miterlimit="10" cx="27.417" cy="15.662" r="2.923"/>
	<rect x="1.105" y="21.506" fill="none" stroke-width="2" stroke-miterlimit="10" width="5.847" height="12.426"/>
	<line fill="none" stroke-width="2" stroke-miterlimit="10" x1="4.029" y1="23.701" x2="4.029" y2="25.894"/>
</g>
</svg>
