<?xml version="1.0" encoding="utf-8"?>
<!-- Generator: Adobe Illustrator 15.0.2, SVG Export Plug-In . SVG Version: 6.00 Build 0)  -->
<!DOCTYPE svg PUBLIC "-//W3C//DTD SVG 1.1//EN" "http://www.w3.org/Graphics/SVG/1.1/DTD/svg11.dtd">
<svg version="1.1" id="Слой_1" xmlns="http://www.w3.org/2000/svg" xmlns:xlink="http://www.w3.org/1999/xlink" x="0px" y="0px"
	 width="71px" height="62px" viewBox="0 0 71 62" enable-background="new 0 0 71 62" xml:space="preserve">
<line fill="none" stroke-width="3" stroke-linecap="round" stroke-linejoin="round" stroke-miterlimit="22.9256" x1="1.853" y1="60.543" x2="69.113" y2="60.543"/>
<line fill="none" stroke-width="3" stroke-linecap="round" stroke-linejoin="round" stroke-miterlimit="22.9256" x1="8.921" y1="60.543" x2="8.921" y2="34.588"/>
<line fill="none" stroke-width="3" stroke-linecap="round" stroke-linejoin="round" stroke-miterlimit="22.9256" x1="25.511" y1="60.543" x2="25.511" y2="34.588"/>
<line fill="none" stroke-width="3" stroke-linecap="round" stroke-linejoin="round" stroke-miterlimit="22.9256" x1="62.04" y1="60.543" x2="62.04" y2="34.588"/>
<path fill="none" stroke-width="3" stroke-linecap="round" stroke-linejoin="round" stroke-miterlimit="22.9256" d="
	M9.398,1.771h52.178l7.521,17.541c0.076,0.43,0.115,0.873,0.115,1.326c0,4.148-3.361,7.51-7.509,7.51
	c-2.816,0-5.27-1.552-6.556-3.847c-1.282,2.295-3.738,3.847-6.556,3.847s-5.27-1.552-6.557-3.847
	c-1.282,2.295-3.737,3.847-6.555,3.847c-2.817,0-5.27-1.552-6.556-3.847c-1.282,2.295-3.739,3.847-6.556,3.847
	s-5.269-1.552-6.556-3.847c-1.282,2.295-3.734,3.847-6.556,3.847c-4.143,0-7.505-3.362-7.505-7.51c0-0.453,0.036-0.896,0.116-1.326
	L9.398,1.771L9.398,1.771z"/>
<line fill="none" stroke-width="3" stroke-linecap="round" stroke-linejoin="round" stroke-miterlimit="22.9256" x1="15.706" y1="23.711" x2="19.04" y2="2.685"/>
<path fill="none" stroke-width="3" stroke-linecap="round" stroke-linejoin="round" stroke-miterlimit="22.9256" d="
	M28.77,23.711c0.369-7.007,0.741-14.017,1.109-21.026"/>
<path fill="none" stroke-width="3" stroke-linecap="round" stroke-linejoin="round" stroke-miterlimit="22.9256" d="
	M41.832,23.711c-0.368-7.007-0.737-14.017-1.109-21.026"/>
<line fill="none" stroke-width="3" stroke-linecap="round" stroke-linejoin="round" stroke-miterlimit="22.9256" x1="54.896" y1="23.711" x2="51.563" y2="2.685"/>
<line fill="none" stroke-width="3" stroke-linecap="round" stroke-linejoin="round" stroke-miterlimit="22.9256" x1="19.989" y1="47.894" x2="19.989" y2="42.996"/>
<line fill="none" stroke-width="3" stroke-linecap="round" stroke-linejoin="round" stroke-miterlimit="22.9256" x1="39.203" y1="51.385" x2="54.371" y2="36.009"/>
<line fill="none" stroke-width="3" stroke-linecap="round" stroke-linejoin="round" stroke-miterlimit="22.9256" x1="44.558" y1="55.622" x2="54.82" y2="45.221"/>
</svg>
