<?xml version="1.0" encoding="utf-8"?>
<!-- Generator: Adobe Illustrator 15.0.2, SVG Export Plug-In . SVG Version: 6.00 Build 0)  -->
<!DOCTYPE svg PUBLIC "-//W3C//DTD SVG 1.1//EN" "http://www.w3.org/Graphics/SVG/1.1/DTD/svg11.dtd">
<svg version="1.1" id="НАДПИСЬ" xmlns="http://www.w3.org/2000/svg" xmlns:xlink="http://www.w3.org/1999/xlink" x="0px"
	 y="0px" width="99.103px" height="66.52px" viewBox="0 0 99.103 66.52" enable-background="new 0 0 99.103 66.52"
	 xml:space="preserve">
<g>
</g>
<polygon fill="#333333" stroke="#333333" stroke-miterlimit="10" points="18.836,30.937 11.11,30.937 13.728,24.012 11.11,17.086 
	18.836,17.086 "/>
<polygon fill="#333333" stroke="#333333" stroke-miterlimit="10" points="80.265,17.086 87.993,17.086 85.373,24.012 87.993,30.937 
	80.265,30.937 "/>
<g>
	<path fill="#D79747" d="M81.2,46.004c0,1.1-0.839,2.326-1.864,2.724L51.34,59.599c-1.025,0.397-2.705,0.402-3.732,0.01
		L19.125,48.718c-1.027-0.393-1.868-1.614-1.868-2.714V13.086c0-1.1,0.899-2.042,1.998-2.092L47.23,9.709
		c1.099-0.05,2.897-0.05,3.996,0l27.976,1.285c1.099,0.05,1.998,0.992,1.998,2.092V46.004z"/>
</g>
<g>
	<path fill="#F9C458" d="M81.2,44.763c0,1.1-0.839,2.326-1.864,2.724L51.34,58.354c-1.025,0.397-2.705,0.402-3.732,0.01
		L19.125,47.477c-1.027-0.393-1.868-1.614-1.868-2.714V11.845c0-1.1,0.899-2.042,1.998-2.092L47.23,8.468
		c1.099-0.05,2.897-0.05,3.996,0l27.976,1.285c1.099,0.05,1.998,0.992,1.998,2.092V44.763z"/>
</g>
<g>
	<path fill="#F9C458" d="M77.272,43.412c0,0.55-0.419,1.165-0.93,1.367L50.464,54.993c-0.512,0.202-1.351,0.207-1.865,0.011
		L22.226,44.951c-0.514-0.196-0.936-0.806-0.938-1.356l-0.1-30.55c-0.002-0.55,0.447-1.003,0.997-1.007l26.102-0.194
		c0.55-0.004,1.45,0.002,2,0.015l25.996,0.575c0.55,0.012,1,0.472,1,1.022L77.272,43.412z"/>
	<path fill="none" stroke="#333333" stroke-miterlimit="10" d="M77.272,43.412c0,0.55-0.419,1.165-0.93,1.367L50.464,54.993
		c-0.512,0.202-1.351,0.207-1.865,0.011L22.226,44.951c-0.514-0.196-0.936-0.806-0.938-1.356l-0.1-30.55
		c-0.002-0.55,0.447-1.003,0.997-1.007l26.102-0.194c0.55-0.004,1.45,0.002,2,0.015l25.996,0.575c0.55,0.012,1,0.472,1,1.022
		L77.272,43.412z"/>
</g>
<line fill="#FBB040" stroke="#333333" stroke-miterlimit="10" x1="77.199" y1="21.655" x2="21.215" y2="21.655"/>
<rect x="21.812" y="12.563" fill="#333333" stroke="#333333" stroke-miterlimit="10" width="54.491" height="8.56"/>
<g>
	<path fill="#333333" d="M35.855,43.288h-3.712V25.028h3.712V43.288z"/>
	<path fill="#333333" d="M56.346,43.288h-3.332V32.363c0-1.18,0.046-2.483,0.138-3.909H53.06c-0.054,0.272-0.115,0.543-0.185,0.815
		c-0.068,0.272-0.138,0.528-0.206,0.771c-0.069,0.242-0.137,0.458-0.201,0.649c-0.065,0.191-0.121,0.346-0.167,0.464l-3.126,6.66
		h-2.598l-3.022-6.685c-0.031-0.076-0.073-0.197-0.126-0.363s-0.111-0.365-0.172-0.599c-0.062-0.233-0.125-0.494-0.189-0.783
		c-0.065-0.289-0.121-0.599-0.167-0.93h-0.104c0.054,0.798,0.092,1.532,0.115,2.203c0.023,0.671,0.034,1.235,0.034,1.694v10.938
		h-3.344V25.028h4.551l2.908,6.341c0.084,0.204,0.168,0.42,0.253,0.649c0.084,0.229,0.167,0.458,0.247,0.688
		c0.08,0.229,0.153,0.452,0.218,0.668c0.065,0.216,0.113,0.418,0.144,0.605h0.058c0.046-0.187,0.096-0.397,0.149-0.63
		c0.053-0.233,0.111-0.469,0.172-0.707c0.061-0.237,0.126-0.469,0.195-0.694c0.069-0.225,0.142-0.426,0.218-0.604l2.988-6.316h4.643
		V43.288z"/>
	<path fill="#333333" d="M69.93,43.288h-9.814V25.028h3.712v14.923h6.103V43.288z"/>
</g>
<g>
	<path fill="#FFFFFF" d="M39.083,13.474h1.693v2.45h-0.488v-2.035h-0.727v1.046c0,0.3-0.01,0.509-0.03,0.627
		c-0.02,0.119-0.068,0.211-0.144,0.277c-0.077,0.066-0.196,0.1-0.359,0.1c-0.057,0-0.161-0.006-0.312-0.017v-0.383l0.109,0.001
		c0.102,0,0.171-0.014,0.206-0.042s0.053-0.097,0.053-0.206l-0.001-0.421V13.474z"/>
	<path fill="#FFFFFF" d="M41.181,14.713c0-0.25,0.037-0.459,0.11-0.628c0.055-0.125,0.13-0.236,0.225-0.336
		c0.095-0.099,0.199-0.172,0.313-0.22c0.15-0.065,0.324-0.097,0.521-0.097c0.356,0,0.641,0.112,0.855,0.336s0.321,0.535,0.321,0.934
		c0,0.396-0.106,0.705-0.318,0.928c-0.212,0.224-0.496,0.335-0.851,0.335c-0.359,0-0.645-0.111-0.857-0.333
		C41.287,15.41,41.181,15.104,41.181,14.713z M41.684,14.697c0,0.277,0.063,0.488,0.189,0.631s0.287,0.215,0.481,0.215
		c0.194,0,0.354-0.071,0.479-0.213c0.125-0.142,0.187-0.355,0.187-0.639c0-0.281-0.061-0.49-0.182-0.628
		c-0.122-0.138-0.283-0.207-0.484-0.207s-0.363,0.07-0.486,0.21C41.745,14.204,41.684,14.415,41.684,14.697z"/>
	<path fill="#FFFFFF" d="M43.931,13.474h1.637v0.411h-1.149v2.039h-0.488V13.474z"/>
	<path fill="#FFFFFF" d="M45.827,13.474h0.457v1.631l0.979-1.631h0.486v2.45h-0.457v-1.599l-0.978,1.599h-0.488V13.474z"/>
	<path fill="#FFFFFF" d="M49.794,15.022l0.473,0.152c-0.073,0.267-0.193,0.466-0.362,0.596c-0.169,0.13-0.383,0.195-0.643,0.195
		c-0.321,0-0.584-0.111-0.792-0.333c-0.207-0.222-0.31-0.526-0.31-0.912c0-0.408,0.104-0.725,0.312-0.95
		c0.208-0.226,0.481-0.338,0.819-0.338c0.296,0,0.536,0.089,0.721,0.266c0.11,0.105,0.192,0.255,0.247,0.451l-0.483,0.117
		c-0.029-0.127-0.088-0.227-0.179-0.301c-0.091-0.074-0.201-0.11-0.331-0.11c-0.179,0-0.324,0.065-0.436,0.195
		c-0.111,0.13-0.167,0.342-0.167,0.634c0,0.31,0.055,0.53,0.165,0.662s0.253,0.197,0.429,0.197c0.13,0,0.241-0.042,0.335-0.125
		C49.686,15.333,49.753,15.202,49.794,15.022z"/>
	<path fill="#FFFFFF" d="M51.147,15.923v-2.035h-0.718v-0.415h1.921v0.415h-0.716v2.035H51.147z"/>
	<path fill="#FFFFFF" d="M52.671,13.474h0.457v1.631l0.979-1.631h0.486v2.45h-0.457v-1.599l-0.978,1.599h-0.488V13.474z"/>
	<path fill="#FFFFFF" d="M55.1,13.474h0.488v1.042c0.108-0.011,0.183-0.04,0.221-0.085c0.038-0.046,0.098-0.173,0.178-0.381
		c0.102-0.265,0.203-0.43,0.306-0.495c0.101-0.064,0.264-0.097,0.489-0.097c0.011,0,0.035,0,0.071-0.001v0.366l-0.069-0.001
		c-0.1,0-0.173,0.012-0.22,0.038c-0.046,0.025-0.083,0.063-0.111,0.114c-0.029,0.051-0.071,0.157-0.127,0.316
		c-0.03,0.084-0.063,0.155-0.097,0.212c-0.035,0.057-0.096,0.11-0.184,0.16c0.108,0.031,0.198,0.094,0.27,0.189
		c0.07,0.095,0.148,0.229,0.232,0.401l0.33,0.672h-0.573l-0.289-0.633c-0.004-0.009-0.014-0.026-0.028-0.052
		c-0.005-0.009-0.025-0.047-0.061-0.115c-0.063-0.121-0.114-0.196-0.154-0.226c-0.04-0.03-0.102-0.046-0.184-0.047v1.073H55.1
		V13.474z"/>
	<path fill="#FFFFFF" d="M59.333,15.923h-0.531l-0.211-0.557h-0.967l-0.199,0.557h-0.518l0.941-2.45h0.517L59.333,15.923z
		 M58.435,14.954l-0.334-0.909l-0.326,0.909H58.435z"/>
	<path fill="#FFFFFF" d="M28.882,17.581h0.457v1.631l0.979-1.631h0.486v2.45h-0.457v-1.599L29.37,20.03h-0.488V17.581z"/>
	<path fill="#FFFFFF" d="M31.305,20.03v-2.45h0.488v0.964h0.957v-0.964h0.488v2.45h-0.488v-1.071h-0.957v1.071H31.305z"/>
	<path fill="#FFFFFF" d="M34.286,20.03v-2.035h-0.717v-0.415h1.921v0.415h-0.716v2.035H34.286z"/>
	<path fill="#FFFFFF" d="M35.804,20.03v-2.45h1.792v0.415h-1.304v0.543h1.213v0.413h-1.213v0.667h1.35v0.413H35.804z"/>
	<path fill="#FFFFFF" d="M38.057,20.03v-2.45h0.783c0.297,0,0.49,0.012,0.581,0.037c0.139,0.037,0.254,0.117,0.348,0.24
		c0.094,0.123,0.14,0.282,0.14,0.477c0,0.15-0.027,0.277-0.081,0.379s-0.122,0.183-0.205,0.242
		c-0.083,0.058-0.167,0.097-0.253,0.116c-0.116,0.023-0.285,0.035-0.506,0.035h-0.318v0.924H38.057z M38.545,17.995v0.695h0.267
		c0.192,0,0.321-0.013,0.386-0.038c0.065-0.026,0.116-0.066,0.152-0.121c0.037-0.055,0.055-0.118,0.055-0.19
		c0-0.089-0.025-0.163-0.077-0.221c-0.052-0.058-0.117-0.094-0.196-0.108c-0.058-0.011-0.175-0.017-0.351-0.017H38.545z"/>
	<path fill="#FFFFFF" d="M40.311,20.03v-2.45h0.488v0.964h0.957v-0.964h0.488v2.45h-0.488v-1.071h-0.957v1.071H40.311z"/>
	<path fill="#FFFFFF" d="M42.748,20.03v-2.45h1.792v0.415h-1.304v0.543h1.213v0.413h-1.213v0.667h1.35v0.413H42.748z"/>
	<path fill="#FFFFFF" d="M45.544,20.03v-2.035h-0.717v-0.415h1.921v0.415h-0.716v2.035H45.544z"/>
	<path fill="#FFFFFF" d="M47.006,19.377v-0.47h0.91v0.47H47.006z"/>
	<path fill="#FFFFFF" d="M48.181,20.03v-2.45h0.73l0.438,1.671l0.434-1.671h0.732v2.45h-0.453v-1.928l-0.48,1.928h-0.47
		l-0.479-1.928v1.928H48.181z"/>
	<path fill="#FFFFFF" d="M53.18,20.03h-0.531l-0.211-0.557h-0.966l-0.2,0.557h-0.518l0.941-2.45h0.517L53.18,20.03z M52.282,19.061
		l-0.333-0.909l-0.327,0.909H52.282z"/>
	<path fill="#FFFFFF" d="M53.463,17.581h1.638v0.411h-1.149v2.039h-0.488V17.581z"/>
	<path fill="#FFFFFF" d="M57.321,20.03H56.79l-0.211-0.557h-0.967l-0.199,0.557h-0.518l0.941-2.45h0.517L57.321,20.03z
		 M56.422,19.061l-0.334-0.909l-0.326,0.909H56.422z"/>
	<path fill="#FFFFFF" d="M57.923,18.249l-0.475-0.112c0.103-0.398,0.394-0.598,0.872-0.598c0.284,0,0.498,0.063,0.643,0.19
		s0.217,0.275,0.217,0.445c0,0.117-0.033,0.222-0.099,0.316c-0.066,0.094-0.165,0.177-0.297,0.248
		c0.16,0.056,0.28,0.135,0.361,0.237c0.08,0.102,0.12,0.228,0.12,0.377c0,0.215-0.078,0.389-0.233,0.521
		c-0.155,0.133-0.389,0.199-0.698,0.199c-0.253,0-0.452-0.043-0.599-0.128c-0.146-0.085-0.256-0.245-0.33-0.479l0.447-0.148
		c0.046,0.147,0.107,0.242,0.184,0.286s0.171,0.065,0.283,0.065c0.153,0,0.266-0.034,0.336-0.101s0.105-0.145,0.105-0.231
		c0-0.1-0.04-0.181-0.119-0.242c-0.08-0.061-0.2-0.092-0.36-0.092h-0.11v-0.37h0.056c0.149,0,0.264-0.034,0.343-0.102
		s0.119-0.158,0.119-0.271c0-0.089-0.032-0.164-0.097-0.226c-0.064-0.061-0.156-0.092-0.276-0.092
		C58.112,17.941,57.981,18.044,57.923,18.249z"/>
	<path fill="#FFFFFF" d="M59.701,17.581h0.457v1.631l0.979-1.631h0.486v2.45h-0.457v-1.599l-0.978,1.599h-0.488V17.581z"/>
	<path fill="#FFFFFF" d="M62.124,20.03v-2.45h0.488v0.964h0.956v-0.964h0.488v2.45h-0.488v-1.071h-0.956v1.071H62.124z"/>
	<path fill="#FFFFFF" d="M64.461,18.82c0-0.25,0.037-0.459,0.11-0.628c0.056-0.125,0.13-0.236,0.226-0.336
		c0.095-0.099,0.199-0.172,0.313-0.22c0.15-0.065,0.324-0.097,0.521-0.097c0.356,0,0.642,0.112,0.855,0.336s0.32,0.535,0.32,0.934
		c0,0.396-0.105,0.705-0.318,0.928c-0.212,0.224-0.495,0.335-0.851,0.335c-0.359,0-0.646-0.111-0.857-0.333
		S64.461,19.21,64.461,18.82z M64.964,18.804c0,0.277,0.063,0.488,0.189,0.631c0.127,0.143,0.287,0.215,0.481,0.215
		c0.195,0,0.354-0.071,0.479-0.213s0.188-0.355,0.188-0.639c0-0.281-0.062-0.49-0.183-0.628c-0.121-0.138-0.283-0.207-0.484-0.207
		s-0.363,0.07-0.486,0.21C65.026,18.311,64.964,18.522,64.964,18.804z"/>
	<path fill="#FFFFFF" d="M67.189,17.581h0.967c0.191,0,0.334,0.008,0.428,0.024s0.178,0.05,0.252,0.101
		c0.074,0.051,0.136,0.12,0.186,0.205c0.05,0.085,0.074,0.181,0.074,0.287c0,0.115-0.03,0.22-0.092,0.315
		c-0.061,0.096-0.144,0.168-0.248,0.216c0.147,0.043,0.261,0.118,0.34,0.222c0.079,0.105,0.119,0.228,0.119,0.369
		c0,0.112-0.025,0.22-0.077,0.325c-0.051,0.105-0.121,0.189-0.209,0.252c-0.089,0.063-0.198,0.102-0.327,0.116
		c-0.082,0.009-0.278,0.014-0.589,0.017h-0.823V17.581z M67.677,17.988v0.566h0.32c0.189,0,0.308-0.003,0.354-0.008
		c0.083-0.01,0.148-0.04,0.196-0.088s0.072-0.112,0.072-0.191c0-0.076-0.021-0.137-0.062-0.185
		c-0.042-0.047-0.103-0.076-0.185-0.086c-0.048-0.005-0.188-0.008-0.417-0.008H67.677z M67.677,18.962v0.655h0.452
		c0.176,0,0.287-0.005,0.334-0.015c0.073-0.014,0.132-0.046,0.178-0.098s0.068-0.121,0.068-0.208c0-0.074-0.018-0.136-0.053-0.188
		s-0.086-0.088-0.152-0.112s-0.211-0.035-0.433-0.035H67.677z"/>
</g>
</svg>
