<?xml version="1.0" encoding="utf-8"?>
<!-- Generator: Adobe Illustrator 15.0.2, SVG Export Plug-In . SVG Version: 6.00 Build 0)  -->
<!DOCTYPE svg PUBLIC "-//W3C//DTD SVG 1.1//EN" "http://www.w3.org/Graphics/SVG/1.1/DTD/svg11.dtd">
<svg version="1.1" id="Слой_1" xmlns="http://www.w3.org/2000/svg" xmlns:xlink="http://www.w3.org/1999/xlink" x="0px" y="0px"
	 width="117px" height="42.748px" viewBox="0 0 117 42.748" enable-background="new 0 0 117 42.748" xml:space="preserve">
<path d="M16.979,31.25l0.24,2.021c1.911,0.217,3.467,1.99,3.25,3.994c0.854-0.598,1.421-1.33,1.774-2.234
	c0.282-0.723,0.284-1.559-0.032-2.27c-0.361-0.807-1.386-1.627-2.235-1.852C19.129,30.688,17.984,31.242,16.979,31.25L16.979,31.25z
	"/>
<path d="M16.341,34.203H5.906c-1.938,0-3.576,1.168-3.382,3.242c1.428,0.596,5.326,0.752,9.07,0.705
	c2.094-0.027,6.049,0.051,8.092-0.535C19.958,35.406,18.307,34.203,16.341,34.203L16.341,34.203z"/>
<polygon points="16.403,33.246 16.171,31.365 6.4,31.365 6.037,33.242 "/>
<path d="M5.21,33.248l0.31-1.998c-0.978-0.02-2.087-0.561-2.927-0.338c-0.818,0.215-1.661,0.885-2.072,1.627
	c-0.41,0.74-0.498,1.613-0.224,2.402c0.269,0.771,0.842,1.498,1.473,1.992C1.66,34.961,3.317,33.291,5.21,33.248L5.21,33.248z"/>
<path d="M22.257,36.564c-0.494,1.031-1.5,1.676-2.586,1.957c-2.142,0.553-5.872,0.492-8.063,0.521
	c-3.714,0.049-7.576-0.105-9.106-0.689c-0.88-0.336-1.651-0.928-2.063-1.791c0.003,0.32,0.017,0.646,0.041,0.975
	c0.103,1.422,0.389,2.828,0.818,3.525c0.932,1.51,2.241,1.682,4.142,1.682l11.735,0.004c1.945,0,3.279-0.154,4.224-1.686
	c0.431-0.697,0.716-2.104,0.818-3.525C22.24,37.209,22.254,36.883,22.257,36.564L22.257,36.564z"/>
<path d="M22.451,31.236c-0.032-0.311-0.061-0.615-0.088-0.906c-0.149-1.605-0.255-2.742-0.798-3.195
	c-0.966,0.584-1.208,1.246-1.014,2.809C21.255,30.164,21.969,30.678,22.451,31.236z"/>
<path d="M19.833,29.658c-0.226-2.064,0.408-2.502,0.984-2.898c0.351-0.244,0.676-0.467,0.651-1.246
	c-0.013-0.389-0.025-0.805-0.037-1.227c-0.045-1.533-0.093-3.152-0.187-4.762c-0.294,0.579-0.761,1.012-1.237,1.452
	c-0.684,0.636-1.389,1.288-1.538,2.464c-0.021,0.16-0.005,0.529,0.014,1.01c0.064,1.615,0.174,4.418-0.844,5.543
	C18.369,29.889,19.098,29.566,19.833,29.658L19.833,29.658z"/>
<path d="M4.966,29.982c-0.978-1.131-0.904-3.941-0.862-5.553c0.045-1.73-0.202-2.225-1.537-3.457
	c-0.471-0.436-0.934-0.864-1.229-1.436c-0.092,1.604-0.14,3.215-0.185,4.742c-0.03,1.01-0.304,1.838,0.614,2.471
	c0.578,0.398,1.211,0.838,0.984,2.906C3.503,29.547,4.228,29.871,4.966,29.982L4.966,29.982z"/>
<path d="M1.998,29.771c0.197-1.568,0.124-2.215-1.012-2.824C0.445,27.4,0.338,28.566,0.189,30.18
	c-0.027,0.297-0.056,0.605-0.088,0.922C0.579,30.527,1.292,30.006,1.998,29.771L1.998,29.771z"/>
<path d="M20.125,13.212c-0.307-1.42-0.792-2.882-1.629-3.992c-0.092-0.121-0.188-0.239-0.288-0.352
	c0.525,1.455-0.058,3.477-0.651,5.538c-0.445,1.539-0.871,2.956-0.871,4.573v10.955c1.199-0.66,1.075-3.766,1.008-5.465
	c-0.02-0.5-0.035-0.885-0.01-1.08c0.167-1.328,0.93-2.035,1.67-2.722c0.719-0.666,1.415-1.311,1.415-2.536
	C20.767,16.677,20.432,14.633,20.125,13.212L20.125,13.212z"/>
<path d="M5.964,29.93l0.009-11.353c0.023-1.351-0.47-2.919-0.951-4.445c-0.583-1.854-1.148-3.649-0.796-5.005
	C4.202,9.157,4.178,9.188,4.154,9.22c-0.836,1.11-1.321,2.572-1.628,3.992c-0.296,1.37-0.49,2.888-0.623,4.457
	c-0.125,1.456,0.326,2.023,1.385,3.002c1.429,1.32,1.721,1.914,1.672,3.779C4.916,26.145,4.834,29.26,5.964,29.93L5.964,29.93z"/>
<path d="M16.177,7.987C15.709,7.8,15.18,7.69,14.581,7.677c-1.7,0.633-4.894,0.608-6.521,0
	c-1.22,0.027-2.61,0.455-2.962,1.77C4.785,10.62,5.292,12.232,5.816,13.9c0.338,1.076,0.684,2.173,0.831,3.209
	c0.458-0.81,1.315-1.321,2.251-1.321h4.845c0.958,0,1.833,0.534,2.28,1.375c0.146-0.963,0.441-1.986,0.733-3
	C17.517,11.534,18.253,8.977,16.177,7.987L16.177,7.987z"/>
<path d="M6.646,18.966c-0.011,0.477-0.007,0.734-0.007,1.209h9.372v-0.847c0-1.393-0.897-2.525-2.34-2.525H8.979
	C7.76,16.804,6.738,17.754,6.646,18.966z"/>
<polygon points="6.646,30.48 16.004,30.48 16.004,27.893 6.646,27.893 6.646,30.48 "/>
<polygon points="6.646,26.969 16.004,26.969 16.004,24.379 6.646,24.379 6.646,26.969 "/>
<polygon points="6.646,23.533 16.004,23.533 16.004,20.945 6.646,20.945 6.646,23.533 "/>
<path d="M7.134,5.979c0.134,0.241,0.49,0.447,0.98,0.612c1.633,0.549,5.308,0.642,6.92-0.208
	c0.347-0.184,0.552-0.399,0.539-0.641c-0.065-1.274-0.326-2.84-0.657-4.058c-0.134-0.496-0.207-0.928-0.678-1.182
	c-1.247-0.669-4.58-0.669-5.826,0C8.167,0.633,7.994,0.89,7.867,1.196C7.628,1.768,6.862,5.49,7.134,5.979L7.134,5.979z"/>
<g>
	<path d="M54.833,11.391h4.915v16.381h-4.915V26.23c-1.158,1.334-2.785,2-4.881,2c-2.162,0-4.008-0.836-5.537-2.508
		c-1.529-1.67-2.293-3.718-2.293-6.142s0.764-4.472,2.293-6.143s3.375-2.506,5.537-2.506c2.097,0,3.724,0.667,4.881,1.999V11.391z
		 M48.118,22.496c0.721,0.721,1.66,1.082,2.817,1.082s2.097-0.361,2.817-1.082c0.721-0.72,1.081-1.692,1.081-2.916
		c0-1.223-0.36-2.195-1.081-2.916s-1.66-1.081-2.817-1.081s-2.097,0.36-2.817,1.081s-1.081,1.693-1.081,2.916
		C47.037,20.804,47.397,21.776,48.118,22.496z"/>
	<path d="M75.898,11.391h4.914v16.381h-4.914V26.23c-0.983,1.334-2.545,2-4.685,2c-1.748,0-3.206-0.602-4.374-1.803
		c-1.169-1.201-1.753-2.861-1.753-4.979V11.391h4.914v9.337c0,0.961,0.268,1.698,0.803,2.212s1.218,0.77,2.048,0.77
		c0.938,0,1.682-0.283,2.228-0.852s0.819-1.409,0.819-2.523V11.391z"/>
	<path d="M95.98,16.108h-3.374v5.799c0,0.656,0.262,1.07,0.786,1.246c0.524,0.174,1.387,0.229,2.588,0.164v4.455
		c-3.123,0.326-5.285,0.027-6.486-0.902c-1.201-0.928-1.802-2.582-1.802-4.962v-5.799h-2.621v-4.717h2.621V8.278l4.914-1.475v4.587
		h3.374V16.108z"/>
	<path d="M114.425,25.723c-1.682,1.672-3.734,2.508-6.159,2.508c-2.424,0-4.478-0.836-6.158-2.508
		c-1.683-1.67-2.523-3.718-2.523-6.142s0.841-4.472,2.523-6.143c1.681-1.671,3.734-2.506,6.158-2.506
		c2.425,0,4.478,0.835,6.159,2.506s2.522,3.718,2.522,6.143S116.106,24.053,114.425,25.723z M105.58,22.365
		c0.721,0.721,1.615,1.082,2.686,1.082s1.966-0.361,2.687-1.082s1.081-1.648,1.081-2.785c0-1.135-0.36-2.064-1.081-2.785
		s-1.616-1.081-2.687-1.081s-1.965,0.36-2.686,1.081s-1.082,1.649-1.082,2.785C104.498,20.717,104.859,21.645,105.58,22.365z"/>
</g>
<g>
	<path d="M47.592,33.818h1.35v5.902h-1.35v-2.057c-0.32,0.123-0.655,0.186-1.003,0.186
		c-0.607,0-1.112-0.17-1.514-0.51c-0.402-0.342-0.603-0.813-0.603-1.414v-2.107h1.349v1.906c0,0.264,0.073,0.467,0.219,0.611
		c0.146,0.143,0.34,0.215,0.582,0.215c0.354,0,0.677-0.064,0.97-0.193V33.818z"/>
	<path d="M61.844,38.422h2.361v1.299h-3.711v-5.902h3.668v1.299h-2.318v0.979h2.108v1.281h-2.108V38.422z"/>
	<path d="M80.143,39.721h-1.534l-0.995-1.703l-0.995,1.703h-1.535l1.763-3.027l-1.678-2.875h1.534l0.911,1.561
		l0.911-1.561h1.534l-1.678,2.875L80.143,39.721z"/>
	<path d="M90.852,39.721v-1.264c0.326,0.051,0.571,0,0.734-0.152s0.244-0.461,0.244-0.928v-3.559h4.081v5.902h-1.349
		v-4.604H93.18v2.209c0,0.5-0.069,0.926-0.207,1.273c-0.138,0.35-0.323,0.604-0.557,0.764s-0.478,0.268-0.733,0.324
		S91.149,39.756,90.852,39.721z"/>
	<path d="M107.465,39.721v-5.902h1.35v1.855h0.885c0.579,0,1.068,0.197,1.468,0.59
		c0.399,0.395,0.599,0.871,0.599,1.434s-0.199,1.041-0.599,1.434c-0.399,0.395-0.889,0.59-1.468,0.59H107.465z M108.814,38.457
		h0.885c0.208,0,0.38-0.074,0.515-0.221c0.135-0.145,0.202-0.326,0.202-0.539s-0.067-0.393-0.202-0.539s-0.307-0.221-0.515-0.221
		h-0.885V38.457z M112.271,39.721v-5.902h1.35v5.902H112.271z"/>
</g>
</svg>
