<?xml version="1.0" encoding="utf-8"?>
<!-- Generator: Adobe Illustrator 15.0.2, SVG Export Plug-In . SVG Version: 6.00 Build 0)  -->
<!DOCTYPE svg PUBLIC "-//W3C//DTD SVG 1.1//EN" "http://www.w3.org/Graphics/SVG/1.1/DTD/svg11.dtd">
<svg version="1.1" id="Слой_1" xmlns="http://www.w3.org/2000/svg" xmlns:xlink="http://www.w3.org/1999/xlink" x="0px" y="0px"
	 width="60px" height="22.292px" viewBox="0 0 60 22.292" enable-background="new 0 0 60 22.292" xml:space="preserve">
<path d="M8.79,16.188l0.123,1.032c0.978,0.112,1.773,1.019,1.663,2.043c0.436-0.305,0.728-0.678,0.907-1.142
	c0.145-0.369,0.146-0.798-0.016-1.161c-0.185-0.411-0.709-0.832-1.143-0.947C9.89,15.902,9.304,16.186,8.79,16.188L8.79,16.188z"/>
<path d="M8.463,17.699H3.127c-0.992,0-1.829,0.598-1.729,1.658c0.73,0.306,2.724,0.384,4.638,0.36
	c1.071-0.014,3.093,0.026,4.138-0.274C10.313,18.314,9.469,17.699,8.463,17.699L8.463,17.699z"/>
<polygon points="8.495,17.209 8.376,16.248 3.379,16.248 3.193,17.208 "/>
<path d="M2.771,17.211l0.158-1.022c-0.5-0.01-1.066-0.287-1.497-0.173c-0.418,0.11-0.849,0.454-1.06,0.833
	c-0.21,0.378-0.254,0.825-0.114,1.229c0.137,0.394,0.431,0.766,0.753,1.018C0.955,18.087,1.803,17.232,2.771,17.211L2.771,17.211z"
	/>
<path d="M11.489,18.905c-0.251,0.529-0.768,0.858-1.322,1.002c-1.096,0.283-3.003,0.252-4.124,0.267
	c-1.899,0.025-3.874-0.054-4.657-0.353c-0.45-0.171-0.844-0.474-1.055-0.916c0.002,0.164,0.009,0.33,0.022,0.501
	c0.052,0.728,0.198,1.444,0.418,1.801c0.477,0.772,1.146,0.86,2.119,0.86L8.89,22.07c0.995,0,1.677-0.079,2.161-0.863
	c0.219-0.356,0.366-1.075,0.418-1.801C11.48,19.237,11.488,19.069,11.489,18.905L11.489,18.905z"/>
<path d="M11.588,16.18c-0.017-0.157-0.031-0.313-0.045-0.461c-0.076-0.822-0.131-1.403-0.408-1.633
	c-0.493,0.299-0.617,0.636-0.519,1.437C10.977,15.635,11.342,15.897,11.588,16.18z"/>
<path d="M10.249,15.375c-0.115-1.057,0.209-1.28,0.503-1.483c0.181-0.125,0.347-0.239,0.333-0.637
	c-0.006-0.197-0.012-0.412-0.018-0.626c-0.023-0.785-0.049-1.612-0.096-2.437c-0.15,0.296-0.39,0.519-0.633,0.743
	c-0.349,0.325-0.709,0.658-0.786,1.26c-0.011,0.083-0.002,0.271,0.006,0.518c0.034,0.825,0.089,2.259-0.431,2.834
	C9.5,15.493,9.874,15.327,10.249,15.375L10.249,15.375z"/>
<path d="M2.646,15.54c-0.501-0.578-0.462-2.014-0.441-2.838c0.023-0.885-0.104-1.138-0.786-1.769
	c-0.241-0.223-0.478-0.441-0.629-0.734c-0.048,0.82-0.072,1.644-0.095,2.426c-0.015,0.517-0.156,0.94,0.314,1.263
	c0.296,0.203,0.619,0.429,0.503,1.487C1.897,15.319,2.268,15.483,2.646,15.54L2.646,15.54z"/>
<path d="M1.128,15.432c0.101-0.8,0.063-1.132-0.518-1.444c-0.276,0.233-0.331,0.829-0.408,1.656
	c-0.013,0.151-0.028,0.309-0.044,0.47C0.403,15.819,0.768,15.553,1.128,15.432L1.128,15.432z"/>
<path d="M10.399,6.964c-0.157-0.727-0.405-1.474-0.833-2.042C9.519,4.861,9.47,4.801,9.418,4.743
	c0.268,0.744-0.029,1.779-0.333,2.832C8.858,8.362,8.639,9.087,8.639,9.914v5.604c0.614-0.339,0.55-1.927,0.516-2.796
	c-0.01-0.255-0.018-0.452-0.005-0.551c0.087-0.68,0.476-1.042,0.855-1.393c0.367-0.34,0.723-0.669,0.723-1.297
	C10.727,8.737,10.556,7.691,10.399,6.964L10.399,6.964z"/>
<path d="M3.156,15.515l0.004-5.807c0.013-0.69-0.24-1.493-0.487-2.273c-0.298-0.948-0.586-1.866-0.407-2.56
	C2.255,4.89,2.244,4.906,2.231,4.923C1.803,5.491,1.555,6.237,1.398,6.964c-0.152,0.7-0.251,1.478-0.319,2.279
	c-0.064,0.745,0.167,1.035,0.708,1.535c0.73,0.676,0.879,0.979,0.855,1.932C2.62,13.579,2.579,15.171,3.156,15.515L3.156,15.515z"/>
<path d="M8.38,4.292C8.14,4.196,7.87,4.14,7.563,4.133c-0.869,0.325-2.503,0.312-3.335,0
	C3.604,4.147,2.893,4.366,2.713,5.038c-0.16,0.601,0.099,1.425,0.367,2.278c0.173,0.551,0.35,1.111,0.425,1.64
	C3.74,8.542,4.178,8.282,4.657,8.282h2.478c0.49,0,0.938,0.272,1.167,0.703c0.073-0.492,0.225-1.016,0.374-1.534
	C9.065,6.106,9.441,4.798,8.38,4.292L8.38,4.292z"/>
<path d="M3.505,9.907C3.5,10.15,3.502,10.282,3.502,10.525h4.793v-0.433c0-0.713-0.46-1.291-1.198-1.291H4.698
	C4.075,8.802,3.552,9.287,3.505,9.907z"/>
<polygon points="3.505,15.795 8.291,15.795 8.291,14.472 3.505,14.472 "/>
<polygon points="3.505,14 8.291,14 8.291,12.676 3.505,12.676 "/>
<polygon points="3.505,12.243 8.291,12.243 8.291,10.918 3.505,10.918 "/>
<path d="M3.754,3.265c0.069,0.124,0.251,0.228,0.501,0.313c0.835,0.281,2.715,0.328,3.54-0.107
	C7.973,3.377,8.077,3.268,8.07,3.144C8.038,2.492,7.904,1.691,7.734,1.069C7.667,0.815,7.629,0.594,7.388,0.464
	c-0.637-0.343-2.343-0.343-2.979,0C4.283,0.53,4.194,0.662,4.129,0.819C4.008,1.111,3.616,3.015,3.754,3.265L3.754,3.265z"/>
<g>
	<path d="M28.148,6.033h2.514v8.378h-2.514v-0.789c-0.591,0.68-1.423,1.023-2.494,1.023
		c-1.106,0-2.051-0.428-2.832-1.284c-0.782-0.853-1.173-1.9-1.173-3.139c0-1.241,0.391-2.288,1.173-3.143
		c0.781-0.854,1.726-1.281,2.832-1.281c1.071,0,1.903,0.341,2.494,1.023V6.033z M24.716,11.712c0.369,0.369,0.848,0.554,1.441,0.554
		c0.59,0,1.072-0.185,1.439-0.554c0.368-0.368,0.552-0.865,0.552-1.49c0-0.626-0.184-1.123-0.552-1.493
		c-0.369-0.368-0.849-0.552-1.439-0.552c-0.594,0-1.073,0.184-1.441,0.552c-0.368,0.37-0.554,0.866-0.554,1.493
		C24.162,10.847,24.347,11.344,24.716,11.712z"/>
	<path d="M38.921,6.033h2.515v8.378h-2.515v-0.789c-0.499,0.68-1.298,1.023-2.395,1.023
		c-0.894,0-1.64-0.309-2.236-0.923c-0.599-0.614-0.896-1.463-0.896-2.545V6.033h2.514v4.774c0,0.492,0.137,0.87,0.411,1.132
		c0.271,0.263,0.621,0.393,1.046,0.393c0.48,0,0.86-0.145,1.139-0.435c0.28-0.291,0.418-0.721,0.418-1.291V6.033z"/>
	<path d="M49.192,8.445h-1.726v2.966c0,0.335,0.136,0.547,0.403,0.638c0.267,0.089,0.708,0.116,1.322,0.083v2.278
		c-1.596,0.166-2.702,0.013-3.316-0.461c-0.614-0.475-0.922-1.32-0.922-2.538V8.445h-1.341V6.033h1.341V4.44l2.513-0.754v2.346
		h1.726V8.445z"/>
	<path d="M58.627,13.363c-0.86,0.855-1.91,1.282-3.149,1.282c-1.241,0-2.291-0.427-3.15-1.282
		c-0.859-0.854-1.292-1.902-1.292-3.141c0-1.24,0.433-2.288,1.292-3.141c0.859-0.856,1.909-1.282,3.15-1.282
		c1.239,0,2.289,0.426,3.149,1.282c0.859,0.854,1.291,1.9,1.291,3.141C59.918,11.461,59.486,12.509,58.627,13.363z M54.104,11.646
		c0.368,0.369,0.824,0.552,1.374,0.552c0.548,0,1.006-0.183,1.374-0.552c0.367-0.369,0.554-0.843,0.554-1.424
		c0-0.582-0.187-1.055-0.554-1.425c-0.368-0.369-0.826-0.553-1.374-0.553c-0.55,0-1.006,0.184-1.374,0.553
		c-0.368,0.37-0.554,0.843-0.554,1.425C53.55,10.802,53.735,11.277,54.104,11.646z"/>
</g>
<g>
	<path d="M24.446,17.502h0.69v3.019h-0.69v-1.053c-0.164,0.063-0.334,0.095-0.512,0.095
		c-0.311,0-0.57-0.086-0.774-0.26c-0.206-0.175-0.309-0.415-0.309-0.722v-1.079h0.689v0.976c0,0.135,0.038,0.239,0.113,0.312
		c0.073,0.073,0.173,0.11,0.296,0.11c0.181,0,0.347-0.034,0.496-0.099V17.502z"/>
	<path d="M31.733,19.856h1.209v0.664h-1.897v-3.019h1.876v0.664h-1.188v0.502h1.08v0.654h-1.08V19.856z"/>
	<path d="M41.095,20.521H40.31l-0.51-0.869l-0.51,0.869h-0.783l0.902-1.548l-0.858-1.471h0.783l0.466,0.8l0.467-0.8
		h0.783l-0.856,1.471L41.095,20.521z"/>
	<path d="M46.569,20.521v-0.645c0.168,0.026,0.292,0,0.376-0.079c0.086-0.078,0.124-0.236,0.124-0.475v-1.82h2.09
		v3.019h-0.691v-2.354H47.76v1.13c0,0.256-0.032,0.474-0.105,0.65c-0.069,0.181-0.164,0.31-0.283,0.392
		c-0.12,0.082-0.245,0.138-0.375,0.165C46.865,20.532,46.724,20.539,46.569,20.521z"/>
	<path d="M55.066,20.521v-3.019h0.69v0.95h0.454c0.297,0,0.545,0.1,0.751,0.3c0.202,0.204,0.306,0.448,0.306,0.734
		c0,0.288-0.102,0.533-0.306,0.734s-0.454,0.3-0.751,0.3H55.066L55.066,20.521z M55.757,19.876h0.453
		c0.107,0,0.196-0.039,0.264-0.115c0.069-0.073,0.102-0.165,0.102-0.275c0-0.108-0.032-0.201-0.102-0.274
		c-0.067-0.074-0.156-0.114-0.264-0.114h-0.453V19.876z M57.525,20.521v-3.019h0.688v3.019H57.525z"/>
</g>
</svg>
