<?xml version="1.0" encoding="utf-8"?>
<!-- Generator: Adobe Illustrator 15.0.2, SVG Export Plug-In . SVG Version: 6.00 Build 0)  -->
<!DOCTYPE svg PUBLIC "-//W3C//DTD SVG 1.1//EN" "http://www.w3.org/Graphics/SVG/1.1/DTD/svg11.dtd">
<svg version="1.1" id="Слой_2" xmlns="http://www.w3.org/2000/svg" xmlns:xlink="http://www.w3.org/1999/xlink" x="0px" y="0px"
	 width="100px" height="81.983px" viewBox="0 0 100 81.983" enable-background="new 0 0 100 81.983" xml:space="preserve">
<circle fill="#EF3E3A" cx="34.52" cy="34.655" r="24.374"/>
<circle fill="#2B98CD" cx="65.371" cy="34.656" r="24.374"/>
<path fill="#97489B" d="M49.945,53.529c0,0-3.837-2.702-6.333-7.876c-1.608-3.336-2.615-7.041-2.615-10.997
	c0-4.152,0.861-7.896,3.115-11.887c2.729-4.833,5.833-6.986,5.833-6.986s3.903,3.045,6.473,8.017
	c1.582,3.062,2.468,6.94,2.478,10.855c0.007,3.316-0.738,6.429-1.875,9.298C54.45,50.428,49.945,53.529,49.945,53.529z"/>
<g>
	<path d="M33.358,64.872c0.728,0,1.317,0.236,1.768,0.708c0.451,0.473,0.676,1.112,0.676,1.918v4.043h-1.131v-4.004
		c0-0.503-0.13-0.893-0.39-1.17c-0.26-0.277-0.606-0.416-1.04-0.416c-0.486,0-0.874,0.162-1.164,0.487
		c-0.291,0.325-0.436,0.821-0.436,1.488v3.614h-1.131v-4.004c0-0.503-0.123-0.893-0.37-1.17s-0.583-0.416-1.008-0.416
		c-0.477,0-0.873,0.165-1.189,0.494s-0.475,0.823-0.475,1.481v3.614h-1.131v-6.5h1.131v0.871c0.442-0.693,1.088-1.04,1.937-1.04
		c0.875,0,1.513,0.368,1.911,1.104C31.768,65.24,32.448,64.872,33.358,64.872z"/>
	<path d="M42.758,65.041h1.131v6.5h-1.131v-1.118c-0.563,0.858-1.383,1.287-2.457,1.287c-0.91,0-1.686-0.331-2.327-0.994
		c-0.642-0.663-0.962-1.472-0.962-2.425s0.32-1.762,0.962-2.425c0.641-0.663,1.417-0.994,2.327-0.994
		c1.074,0,1.894,0.429,2.457,1.287V65.041z M40.443,70.618c0.659,0,1.209-0.224,1.651-0.67c0.442-0.446,0.663-0.998,0.663-1.657
		c0-0.658-0.221-1.211-0.663-1.657c-0.442-0.446-0.993-0.67-1.651-0.67c-0.65,0-1.196,0.224-1.638,0.67s-0.663,0.999-0.663,1.657
		c0,0.659,0.221,1.211,0.663,1.657S39.793,70.618,40.443,70.618z"/>
	<path d="M46.397,68.811c0.113,0.581,0.379,1.032,0.8,1.353c0.42,0.32,0.938,0.48,1.554,0.48c0.857,0,1.481-0.315,1.872-0.948
		l0.962,0.546c-0.633,0.979-1.586,1.469-2.86,1.469c-1.032,0-1.87-0.322-2.516-0.969c-0.646-0.646-0.968-1.462-0.968-2.45
		c0-0.979,0.316-1.794,0.949-2.444c0.633-0.649,1.452-0.975,2.457-0.975c0.953,0,1.731,0.336,2.334,1.008
		c0.602,0.671,0.903,1.479,0.903,2.424c0,0.165-0.014,0.334-0.039,0.507H46.397z M48.646,65.938c-0.606,0-1.109,0.171-1.508,0.513
		c-0.399,0.343-0.646,0.8-0.741,1.372h4.342c-0.095-0.615-0.338-1.083-0.728-1.404C49.622,66.099,49.167,65.938,48.646,65.938z"/>
	<path d="M53.898,66.796c0,0.252,0.126,0.453,0.377,0.604c0.251,0.152,0.555,0.273,0.91,0.364s0.71,0.195,1.065,0.312
		c0.355,0.117,0.659,0.316,0.91,0.599c0.252,0.281,0.377,0.644,0.377,1.085c0,0.59-0.228,1.062-0.683,1.417
		c-0.454,0.355-1.037,0.533-1.748,0.533c-0.633,0-1.175-0.139-1.625-0.416c-0.451-0.277-0.771-0.646-0.962-1.104l0.975-0.56
		c0.104,0.313,0.299,0.56,0.585,0.741s0.629,0.272,1.027,0.272c0.372,0,0.681-0.071,0.923-0.214c0.243-0.144,0.364-0.366,0.364-0.67
		c0-0.251-0.126-0.452-0.377-0.604c-0.252-0.151-0.555-0.272-0.91-0.363c-0.355-0.092-0.711-0.197-1.066-0.319
		c-0.355-0.121-0.658-0.32-0.909-0.598c-0.252-0.277-0.377-0.633-0.377-1.066c0-0.563,0.219-1.026,0.656-1.391
		s0.985-0.546,1.645-0.546c0.528,0,0.998,0.119,1.41,0.357s0.722,0.57,0.93,0.994l-0.949,0.533
		c-0.233-0.555-0.697-0.832-1.391-0.832c-0.321,0-0.594,0.076-0.819,0.228C54.011,66.305,53.898,66.519,53.898,66.796z"/>
	<path d="M62.153,66.133h-1.729v3.523c0,0.32,0.063,0.548,0.188,0.683c0.126,0.134,0.318,0.203,0.578,0.208
		c0.261,0.004,0.581-0.002,0.962-0.02v1.014c-0.987,0.13-1.711,0.05-2.171-0.24c-0.459-0.291-0.688-0.839-0.688-1.645v-3.523h-1.287
		v-1.092h1.287v-1.482l1.131-0.338v1.82h1.729V66.133z"/>
	<path d="M64.663,66.133c0.372-0.806,1.048-1.209,2.027-1.209v1.184c-0.555-0.026-1.031,0.121-1.43,0.441
		c-0.398,0.321-0.598,0.837-0.598,1.547v3.445h-1.131v-6.5h1.131V66.133z"/>
	<path d="M72.93,70.722c-0.667,0.659-1.478,0.988-2.431,0.988s-1.762-0.329-2.425-0.988c-0.663-0.658-0.994-1.469-0.994-2.431
		s0.331-1.772,0.994-2.431c0.663-0.659,1.472-0.988,2.425-0.988s1.764,0.329,2.431,0.988c0.668,0.658,1.001,1.469,1.001,2.431
		S73.598,70.063,72.93,70.722z M70.499,70.605c0.65,0,1.196-0.222,1.638-0.663C72.579,69.5,72.8,68.95,72.8,68.291
		c0-0.658-0.221-1.209-0.663-1.651c-0.441-0.441-0.987-0.663-1.638-0.663c-0.642,0-1.183,0.222-1.625,0.663
		c-0.442,0.442-0.663,0.993-0.663,1.651c0,0.659,0.221,1.209,0.663,1.651C69.316,70.384,69.857,70.605,70.499,70.605z"/>
</g>
</svg>
