<?xml version="1.0" encoding="utf-8"?>
<!-- Generator: Adobe Illustrator 15.0.2, SVG Export Plug-In . SVG Version: 6.00 Build 0)  -->
<!DOCTYPE svg PUBLIC "-//W3C//DTD SVG 1.1//EN" "http://www.w3.org/Graphics/SVG/1.1/DTD/svg11.dtd">
<svg version="1.1" id="Слой_2" xmlns="http://www.w3.org/2000/svg" xmlns:xlink="http://www.w3.org/1999/xlink" x="0px" y="0px"
	 width="81.667px" height="63.833px" viewBox="9.167 8.825 81.667 63.833" enable-background="new 9.167 8.825 81.667 63.833"
	 xml:space="preserve">
<circle fill="#EF3E3A" cx="34.52" cy="34.655" r="24.374"/>
<circle fill="#2B98CD" cx="65.371" cy="34.656" r="24.374"/>
<path fill="#97489B" d="M49.945,53.529c0,0-3.837-2.701-6.333-7.876c-1.608-3.336-2.615-7.041-2.615-10.997
	c0-4.151,0.861-7.896,3.115-11.887c2.729-4.833,5.833-6.985,5.833-6.985s3.903,3.045,6.473,8.017
	c1.582,3.062,2.469,6.939,2.479,10.854c0.006,3.316-0.738,6.43-1.875,9.299C54.45,50.428,49.945,53.529,49.945,53.529z"/>
<g>
	<path d="M33.358,64.872c0.728,0,1.317,0.235,1.768,0.708s0.676,1.111,0.676,1.918v4.043h-1.131v-4.004
		c0-0.503-0.13-0.894-0.39-1.17c-0.26-0.277-0.606-0.416-1.04-0.416c-0.486,0-0.874,0.161-1.164,0.486
		c-0.291,0.325-0.436,0.821-0.436,1.488v3.614H30.51v-4.004c0-0.503-0.123-0.894-0.37-1.17c-0.247-0.277-0.583-0.416-1.008-0.416
		c-0.477,0-0.873,0.164-1.189,0.493s-0.475,0.823-0.475,1.481v3.614h-1.131v-6.5h1.131v0.871c0.442-0.693,1.088-1.04,1.937-1.04
		c0.875,0,1.513,0.367,1.911,1.104C31.768,65.24,32.448,64.872,33.358,64.872z"/>
	<path d="M42.758,65.041h1.131v6.5h-1.131v-1.118c-0.563,0.857-1.383,1.287-2.457,1.287c-0.91,0-1.686-0.331-2.327-0.994
		c-0.642-0.663-0.962-1.472-0.962-2.425s0.32-1.763,0.962-2.425c0.641-0.663,1.417-0.994,2.327-0.994
		c1.074,0,1.894,0.429,2.457,1.287V65.041z M40.443,70.618c0.659,0,1.209-0.225,1.651-0.671c0.442-0.445,0.663-0.997,0.663-1.656
		c0-0.658-0.221-1.211-0.663-1.657c-0.442-0.446-0.993-0.67-1.651-0.67c-0.65,0-1.196,0.224-1.638,0.67
		c-0.442,0.446-0.663,0.999-0.663,1.657c0,0.659,0.221,1.211,0.663,1.656C39.247,70.394,39.793,70.618,40.443,70.618z"/>
	<path d="M46.397,68.811c0.113,0.581,0.379,1.032,0.8,1.354c0.42,0.319,0.938,0.479,1.554,0.479c0.857,0,1.481-0.314,1.872-0.948
		l0.962,0.547c-0.633,0.979-1.586,1.469-2.86,1.469c-1.032,0-1.87-0.322-2.516-0.969s-0.968-1.463-0.968-2.45
		c0-0.979,0.316-1.794,0.949-2.444c0.633-0.648,1.452-0.975,2.457-0.975c0.953,0,1.731,0.336,2.333,1.008
		c0.603,0.671,0.903,1.479,0.903,2.424c0,0.165-0.014,0.334-0.038,0.507L46.397,68.811L46.397,68.811z M48.646,65.938
		c-0.606,0-1.109,0.171-1.508,0.514c-0.399,0.343-0.646,0.8-0.741,1.371h4.341c-0.094-0.614-0.337-1.083-0.727-1.403
		C49.622,66.099,49.167,65.938,48.646,65.938z"/>
	<path d="M53.898,66.796c0,0.252,0.125,0.453,0.377,0.604c0.25,0.152,0.555,0.273,0.91,0.364c0.354,0.091,0.709,0.195,1.064,0.313
		c0.355,0.116,0.659,0.315,0.91,0.599c0.252,0.281,0.377,0.644,0.377,1.085c0,0.59-0.229,1.062-0.684,1.417
		c-0.453,0.354-1.037,0.533-1.748,0.533c-0.633,0-1.174-0.14-1.625-0.416c-0.451-0.277-0.771-0.646-0.961-1.104l0.975-0.56
		c0.104,0.313,0.299,0.56,0.585,0.741c0.286,0.181,0.629,0.271,1.026,0.271c0.373,0,0.682-0.071,0.924-0.214
		c0.242-0.144,0.363-0.366,0.363-0.67c0-0.251-0.125-0.452-0.377-0.604c-0.252-0.15-0.555-0.271-0.91-0.362
		c-0.354-0.092-0.711-0.197-1.065-0.319c-0.354-0.121-0.658-0.32-0.909-0.598c-0.252-0.277-0.377-0.633-0.377-1.066
		c0-0.563,0.219-1.025,0.656-1.391s0.984-0.546,1.645-0.546c0.528,0,0.998,0.119,1.41,0.356c0.412,0.238,0.723,0.57,0.93,0.994
		l-0.949,0.533c-0.232-0.555-0.696-0.832-1.391-0.832c-0.32,0-0.594,0.076-0.818,0.228C54.012,66.305,53.898,66.519,53.898,66.796z"
		/>
	<path d="M62.152,66.133h-1.729v3.522c0,0.32,0.063,0.549,0.188,0.684c0.127,0.134,0.318,0.203,0.578,0.208
		c0.262,0.004,0.582-0.002,0.963-0.021v1.015c-0.987,0.13-1.711,0.05-2.172-0.24c-0.459-0.291-0.688-0.839-0.688-1.646v-3.522
		h-1.287v-1.092h1.287v-1.482l1.131-0.338v1.82h1.729V66.133z"/>
	<path d="M64.663,66.133c0.372-0.806,1.048-1.209,2.026-1.209v1.184c-0.555-0.025-1.03,0.121-1.43,0.441
		c-0.398,0.321-0.598,0.837-0.598,1.547v3.445h-1.131v-6.5h1.131L64.663,66.133L64.663,66.133z"/>
	<path d="M72.93,70.722c-0.666,0.659-1.478,0.988-2.431,0.988s-1.763-0.329-2.425-0.988c-0.663-0.658-0.994-1.469-0.994-2.431
		s0.331-1.772,0.994-2.432c0.662-0.658,1.472-0.987,2.425-0.987s1.765,0.329,2.431,0.987c0.668,0.658,1.002,1.47,1.002,2.432
		S73.598,70.063,72.93,70.722z M70.499,70.605c0.649,0,1.196-0.222,1.638-0.663c0.442-0.441,0.663-0.991,0.663-1.65
		c0-0.658-0.221-1.209-0.663-1.651c-0.441-0.44-0.986-0.663-1.638-0.663c-0.642,0-1.183,0.223-1.625,0.663
		c-0.442,0.442-0.663,0.993-0.663,1.651c0,0.659,0.221,1.209,0.663,1.65C69.316,70.384,69.857,70.605,70.499,70.605z"/>
</g>
</svg>
