<?xml version="1.0" encoding="utf-8"?>
<!-- Generator: Adobe Illustrator 15.0.2, SVG Export Plug-In . SVG Version: 6.00 Build 0)  -->
<!DOCTYPE svg PUBLIC "-//W3C//DTD SVG 1.1//EN" "http://www.w3.org/Graphics/SVG/1.1/DTD/svg11.dtd">
<svg version="1.1" id="Слой_1" xmlns="http://www.w3.org/2000/svg" xmlns:xlink="http://www.w3.org/1999/xlink" x="0px" y="0px"
	 width="30.387px" height="22.333px" viewBox="0 0 30.387 22.333" enable-background="new 0 0 30.387 22.333" xml:space="preserve">
<path fill="#FFFFFF" d="M11.449,9.949c0.955,0.854,1.544,1.32,2.083,1.6c0.937,0.487,1.718,0.513,1.844,0.513
	c0.022,0,0.022-0.001,0.022-0.001h0.08v-0.009l0.004,0.009h0.08c0,0,0,0.001,0.023,0.001c0.126,0,0.906-0.025,1.843-0.513
	c0.54-0.279,1.13-0.746,2.083-1.6c1.914-1.711,7.078-6.392,8.707-7.872C29.178,1.022,28.605,0,26.984,0L15.482,0.004l-0.004,0.004
	V0.004L3.978,0C2.355,0,1.799,1.147,2.742,2.077C4.371,3.557,9.535,8.237,11.449,9.949z M29.883,3.394
	c-1.708,1.551-6.01,5.454-8.244,7.463l8.748,6.151V5.489C30.387,4.734,30.201,4.024,29.883,3.394z M0.68,3.077
	C0.251,3.782,0,4.605,0,5.489v11.783L9.206,10.8C6.778,8.613,2.04,4.313,0.68,3.077z M18.361,13.438
	c-1.34,0.695-2.464,0.752-2.826,0.754c-0.037,0-0.062-0.002-0.078-0.002h-0.004c-0.016,0-0.043,0.002-0.077,0.002
	c-0.363-0.002-1.487-0.06-2.827-0.754c-0.665-0.348-1.256-0.801-1.965-1.413L0.281,19.262c0.647,1.791,2.356,3.07,4.37,3.07h21.085
	c2.093,0,3.861-1.379,4.445-3.281l-9.921-6.968C19.58,12.667,19.006,13.102,18.361,13.438z"/>
</svg>
