<?xml version="1.0" encoding="utf-8"?>
<!-- Generator: Adobe Illustrator 15.0.2, SVG Export Plug-In . SVG Version: 6.00 Build 0)  -->
<!DOCTYPE svg PUBLIC "-//W3C//DTD SVG 1.1//EN" "http://www.w3.org/Graphics/SVG/1.1/DTD/svg11.dtd">
<svg version="1.1" id="Слой_1" xmlns="http://www.w3.org/2000/svg" xmlns:xlink="http://www.w3.org/1999/xlink" x="0px" y="0px"
	 width="82.5px" height="65.333px" viewBox="8.833 8.658 82.5 65.333" enable-background="new 8.833 8.658 82.5 65.333"
	 xml:space="preserve">
<rect y="0" fill="none" width="99.96" height="81.982"/>
<rect x="39.22" y="15.526" fill="#F26324" width="21.45" height="38.538"/>
<path fill="#E92328" d="M40.583,34.795c0-7.829,3.676-14.774,9.328-19.27c-4.153-3.269-9.395-5.245-15.116-5.245
	c-13.551,0-24.514,10.965-24.514,24.515c0,13.551,10.964,24.51,24.514,24.51c5.723,0,10.966-1.973,15.116-5.241
	C44.26,49.64,40.583,42.626,40.583,34.795z"/>
<path fill="#F59F21" d="M89.611,34.795c0,13.551-10.965,24.51-24.514,24.51c-5.721,0-10.964-1.973-15.117-5.241
	c5.719-4.488,9.326-11.438,9.326-19.269c0-7.829-3.673-14.774-9.326-19.27c4.153-3.269,9.399-5.245,15.117-5.245
	C78.646,10.281,89.611,21.312,89.611,34.795z"/>
<g>
	<path d="M22.779,65.171c0.728,0,1.317,0.235,1.768,0.708c0.451,0.473,0.676,1.112,0.676,1.918v4.043h-1.131v-4.004
		c0-0.503-0.13-0.894-0.39-1.17c-0.26-0.277-0.606-0.416-1.04-0.416c-0.486,0-0.874,0.162-1.164,0.486
		c-0.291,0.325-0.436,0.821-0.436,1.488v3.614h-1.131v-4.004c0-0.503-0.123-0.894-0.37-1.17c-0.247-0.277-0.583-0.416-1.008-0.416
		c-0.477,0-0.873,0.165-1.189,0.494c-0.316,0.328-0.475,0.822-0.475,1.48v3.614h-1.131v-6.5h1.131v0.871
		c0.442-0.693,1.088-1.04,1.937-1.04c0.875,0,1.513,0.368,1.911,1.104C21.189,65.539,21.869,65.171,22.779,65.171z"/>
	<path d="M32.179,65.34h1.131v6.5h-1.131v-1.118c-0.563,0.858-1.383,1.287-2.457,1.287c-0.91,0-1.686-0.331-2.327-0.994
		c-0.642-0.663-0.962-1.472-0.962-2.425s0.32-1.762,0.962-2.425c0.641-0.663,1.417-0.994,2.327-0.994
		c1.074,0,1.894,0.429,2.457,1.287V65.34z M29.864,70.917c0.659,0,1.209-0.225,1.651-0.67c0.442-0.446,0.663-0.998,0.663-1.657
		c0-0.658-0.221-1.211-0.663-1.657c-0.442-0.446-0.993-0.67-1.651-0.67c-0.65,0-1.196,0.224-1.638,0.67s-0.663,0.999-0.663,1.657
		c0,0.659,0.221,1.211,0.663,1.657C28.668,70.693,29.214,70.917,29.864,70.917z"/>
	<path d="M35.987,67.095c0,0.252,0.125,0.453,0.377,0.604c0.251,0.151,0.555,0.272,0.91,0.363s0.71,0.195,1.066,0.313
		c0.355,0.117,0.659,0.315,0.91,0.599c0.251,0.281,0.377,0.645,0.377,1.085c0,0.59-0.228,1.063-0.683,1.417
		c-0.455,0.355-1.038,0.533-1.749,0.533c-0.633,0-1.174-0.139-1.625-0.416c-0.451-0.277-0.771-0.646-0.962-1.104l0.975-0.56
		c0.104,0.313,0.299,0.56,0.585,0.741s0.628,0.271,1.027,0.271c0.373,0,0.68-0.07,0.923-0.214c0.243-0.144,0.364-0.366,0.364-0.67
		c0-0.251-0.126-0.452-0.377-0.604s-0.555-0.272-0.91-0.363c-0.355-0.092-0.711-0.197-1.066-0.319
		c-0.355-0.121-0.659-0.319-0.91-0.598c-0.251-0.278-0.377-0.633-0.377-1.066c0-0.563,0.219-1.025,0.657-1.391
		c0.438-0.364,0.985-0.546,1.645-0.546c0.528,0,0.999,0.119,1.41,0.356c0.411,0.238,0.722,0.57,0.93,0.994l-0.949,0.533
		c-0.234-0.555-0.698-0.832-1.391-0.832c-0.321,0-0.594,0.076-0.819,0.229C36.1,66.604,35.987,66.817,35.987,67.095z"/>
	<path d="M44.243,66.432h-1.729v3.523c0,0.319,0.063,0.548,0.188,0.683c0.125,0.134,0.318,0.203,0.579,0.208
		c0.26,0.004,0.581-0.002,0.962-0.02v1.014c-0.988,0.13-1.712,0.05-2.171-0.24c-0.459-0.291-0.689-0.839-0.689-1.645v-3.523h-1.287
		V65.34h1.287v-1.482l1.131-0.338v1.82h1.729V66.432z"/>
	<path d="M46.049,69.109c0.113,0.581,0.379,1.032,0.8,1.354c0.42,0.319,0.938,0.479,1.553,0.479c0.858,0,1.482-0.314,1.872-0.947
		l0.962,0.546c-0.633,0.979-1.586,1.469-2.86,1.469c-1.031,0-1.87-0.322-2.515-0.969c-0.646-0.646-0.968-1.462-0.968-2.45
		c0-0.979,0.316-1.794,0.949-2.444c0.633-0.648,1.452-0.975,2.458-0.975c0.953,0,1.73,0.336,2.333,1.008
		c0.604,0.671,0.903,1.479,0.903,2.424c0,0.165-0.013,0.334-0.039,0.507L46.049,69.109L46.049,69.109z M48.299,66.237
		c-0.607,0-1.11,0.172-1.508,0.514c-0.399,0.343-0.646,0.8-0.741,1.372h4.342c-0.096-0.615-0.338-1.083-0.729-1.404
		C49.273,66.397,48.818,66.237,48.299,66.237z"/>
	<path d="M53.967,66.432c0.372-0.806,1.049-1.209,2.027-1.209v1.184c-0.555-0.025-1.031,0.121-1.43,0.441
		c-0.398,0.321-0.599,0.837-0.599,1.547v3.445h-1.131v-6.5h1.131L53.967,66.432L53.967,66.432z"/>
	<path d="M59.805,72.009c-0.979,0-1.795-0.327-2.445-0.981c-0.648-0.653-0.975-1.467-0.975-2.438s0.325-1.783,0.975-2.438
		c0.65-0.653,1.466-0.98,2.445-0.98c0.641,0,1.217,0.154,1.729,0.462s0.893,0.721,1.145,1.241l-0.949,0.546
		c-0.164-0.348-0.418-0.624-0.761-0.832c-0.342-0.208-0.729-0.313-1.163-0.313c-0.65,0-1.193,0.223-1.632,0.663
		c-0.438,0.442-0.655,0.993-0.655,1.651c0,0.649,0.219,1.196,0.655,1.638c0.438,0.442,0.981,0.663,1.632,0.663
		c0.434,0,0.823-0.102,1.17-0.306c0.348-0.203,0.611-0.479,0.793-0.825l0.963,0.559c-0.277,0.513-0.676,0.922-1.196,1.229
		C61.014,71.854,60.438,72.009,59.805,72.009z"/>
	<path d="M69.139,65.34h1.131v6.5h-1.131v-1.118c-0.563,0.858-1.384,1.287-2.457,1.287c-0.91,0-1.687-0.331-2.328-0.994
		c-0.641-0.663-0.961-1.472-0.961-2.425s0.319-1.762,0.961-2.425c0.643-0.663,1.418-0.994,2.328-0.994
		c1.073,0,1.894,0.429,2.457,1.287V65.34z M66.822,70.917c0.66,0,1.21-0.225,1.652-0.67c0.44-0.446,0.662-0.998,0.662-1.657
		c0-0.658-0.222-1.211-0.662-1.657c-0.442-0.446-0.992-0.67-1.652-0.67c-0.648,0-1.194,0.224-1.637,0.67
		c-0.443,0.446-0.664,0.999-0.664,1.657c0,0.659,0.222,1.211,0.664,1.657C65.627,70.693,66.174,70.917,66.822,70.917z"/>
	<path d="M73.115,66.432c0.371-0.806,1.048-1.209,2.027-1.209v1.184c-0.556-0.025-1.031,0.121-1.431,0.441
		c-0.397,0.321-0.599,0.837-0.599,1.547v3.445h-1.131v-6.5h1.131v1.092H73.115z"/>
	<path d="M81.279,62.74h1.131v9.101h-1.131v-1.118c-0.563,0.858-1.383,1.287-2.457,1.287c-0.91,0-1.686-0.331-2.327-0.994
		s-0.962-1.472-0.962-2.425s0.32-1.762,0.962-2.425s1.417-0.994,2.327-0.994c1.074,0,1.894,0.429,2.457,1.287V62.74z M78.965,70.917
		c0.659,0,1.209-0.225,1.651-0.67c0.44-0.446,0.663-0.998,0.663-1.657c0-0.658-0.223-1.211-0.663-1.657
		c-0.442-0.446-0.992-0.67-1.651-0.67c-0.648,0-1.195,0.224-1.638,0.67c-0.443,0.446-0.663,0.999-0.663,1.657
		c0,0.659,0.221,1.211,0.663,1.657C77.77,70.693,78.314,70.917,78.965,70.917z"/>
</g>
</svg>
