<?xml version="1.0" encoding="utf-8"?>
<!-- Generator: Adobe Illustrator 15.0.2, SVG Export Plug-In . SVG Version: 6.00 Build 0)  -->
<!DOCTYPE svg PUBLIC "-//W3C//DTD SVG 1.1//EN" "http://www.w3.org/Graphics/SVG/1.1/DTD/svg11.dtd">
<svg version="1.1" id="Слой_1" xmlns="http://www.w3.org/2000/svg" xmlns:xlink="http://www.w3.org/1999/xlink" x="0px" y="0px"
	 width="48px" height="37px" viewBox="0 0 48 37" enable-background="new 0 0 48 37" xml:space="preserve">
<g>
	<rect x="-5.967" y="-6.042" fill="none" width="59.934" height="49.156"/>
	<path fill="#010101" d="M8.854,36.948v-2.45c0-0.938-0.571-1.551-1.551-1.551c-0.491,0-1.022,0.163-1.389,0.694
		c-0.286-0.45-0.694-0.694-1.306-0.694c-0.409,0-0.816,0.123-1.144,0.571v-0.489H2.607v3.919h0.857v-2.164
		c0-0.693,0.368-1.021,0.939-1.021c0.571,0,0.857,0.368,0.857,1.021v2.164h0.858v-2.164c0-0.693,0.408-1.021,0.938-1.021
		c0.572,0,0.859,0.368,0.859,1.021v2.164H8.854z M21.551,33.029h-1.388v-1.183h-0.858v1.183h-0.776v0.774h0.776V35.6
		c0,0.899,0.368,1.431,1.347,1.431c0.369,0,0.776-0.124,1.062-0.286l-0.244-0.733c-0.246,0.163-0.531,0.202-0.734,0.202
		c-0.409,0-0.572-0.244-0.572-0.654v-1.755h1.388V33.029z M28.818,32.947c-0.49,0-0.816,0.244-1.02,0.571v-0.491H26.94v3.921h0.858
		v-2.204c0-0.653,0.284-1.021,0.816-1.021c0.161,0,0.365,0.041,0.529,0.081l0.245-0.814C29.227,32.947,28.98,32.947,28.818,32.947z
		 M17.835,33.354c-0.408-0.284-0.98-0.407-1.592-0.407c-0.98,0-1.634,0.489-1.634,1.267c0,0.651,0.491,1.02,1.347,1.143l0.409,0.042
		c0.449,0.079,0.693,0.201,0.693,0.407c0,0.284-0.327,0.49-0.897,0.49c-0.572,0-1.021-0.206-1.307-0.41l-0.408,0.653
		c0.449,0.327,1.062,0.491,1.674,0.491c1.143,0,1.796-0.531,1.796-1.265c0-0.694-0.53-1.062-1.347-1.185l-0.408-0.041
		c-0.368-0.042-0.654-0.124-0.654-0.368c0-0.286,0.286-0.449,0.736-0.449c0.489,0,0.98,0.207,1.224,0.327L17.835,33.354
		L17.835,33.354z M40.618,32.947c-0.492,0-0.818,0.244-1.021,0.571v-0.491h-0.857v3.921h0.857v-2.204
		c0-0.653,0.284-1.021,0.817-1.021c0.162,0,0.366,0.041,0.529,0.081l0.244-0.814C41.025,32.947,40.78,32.947,40.618,32.947z
		 M29.675,34.988c0,1.186,0.817,2.042,2.082,2.042c0.572,0,0.98-0.124,1.389-0.448l-0.408-0.696
		c-0.327,0.246-0.652,0.368-1.021,0.368c-0.695,0-1.186-0.488-1.186-1.266c0-0.733,0.49-1.225,1.186-1.266
		c0.368,0,0.693,0.122,1.021,0.368l0.408-0.696c-0.408-0.324-0.816-0.447-1.389-0.447C30.492,32.947,29.675,33.804,29.675,34.988
		L29.675,34.988z M37.595,34.988v-1.959h-0.857v0.489c-0.284-0.368-0.693-0.571-1.225-0.571c-1.102,0-1.959,0.856-1.959,2.041
		c0,1.186,0.857,2.042,1.959,2.042c0.573,0,0.981-0.203,1.225-0.571v0.489h0.857V34.988L37.595,34.988z M34.451,34.988
		c0-0.693,0.45-1.266,1.184-1.266c0.694,0,1.185,0.532,1.185,1.266c0,0.693-0.49,1.266-1.185,1.266
		C34.901,36.213,34.451,35.682,34.451,34.988z M24.204,32.947c-1.144,0-1.959,0.816-1.959,2.041s0.815,2.042,2,2.042
		c0.571,0,1.143-0.164,1.593-0.531l-0.408-0.613c-0.327,0.246-0.736,0.41-1.144,0.41c-0.531,0-1.061-0.246-1.184-0.939h2.9v-0.328
		C26.042,33.764,25.307,32.947,24.204,32.947L24.204,32.947z M24.204,33.683c0.531,0,0.898,0.327,0.979,0.939h-2.042
		C23.225,34.091,23.592,33.683,24.204,33.683z M45.476,34.988v-3.512h-0.858v2.042c-0.285-0.368-0.692-0.571-1.226-0.571
		c-1.1,0-1.959,0.856-1.959,2.041c0,1.186,0.859,2.042,1.959,2.042c0.571,0,0.981-0.203,1.226-0.571v0.489h0.858V34.988
		L45.476,34.988z M42.332,34.988c0-0.693,0.448-1.266,1.185-1.266c0.693,0,1.183,0.532,1.183,1.266c0,0.693-0.489,1.266-1.183,1.266
		C42.78,36.213,42.332,35.682,42.332,34.988z M13.671,34.988v-1.959h-0.858v0.489c-0.285-0.368-0.693-0.571-1.224-0.571
		c-1.102,0-1.96,0.856-1.96,2.041c0,1.186,0.858,2.042,1.96,2.042c0.572,0,0.98-0.203,1.224-0.571v0.489h0.858V34.988L13.671,34.988
		z M10.487,34.988c0-0.693,0.449-1.266,1.183-1.266c0.695,0,1.184,0.532,1.184,1.266c0,0.693-0.489,1.266-1.184,1.266
		C10.936,36.213,10.487,35.682,10.487,34.988z"/>
	<rect x="17.549" y="3.267" fill="#F26122" width="12.86" height="23.106"/>
	<path fill="#EA1D25" d="M18.366,14.82c0-4.694,2.205-8.858,5.593-11.553c-2.49-1.96-5.633-3.145-9.063-3.145
		c-8.125,0-14.698,6.574-14.698,14.698c0,8.125,6.574,14.696,14.698,14.696c3.431,0,6.574-1.183,9.063-3.143
		C20.571,23.721,18.366,19.515,18.366,14.82z"/>
	<path fill="#F69E1F" d="M47.761,14.82c0,8.125-6.573,14.696-14.696,14.696c-3.43,0-6.574-1.183-9.064-3.143
		c3.428-2.692,5.592-6.858,5.592-11.553c0-4.694-2.203-8.858-5.592-11.553c2.49-1.96,5.635-3.145,9.064-3.145
		C41.188,0.122,47.761,6.736,47.761,14.82z"/>
</g>
</svg>
