<?xml version="1.0" encoding="utf-8"?>
<!-- Generator: Adobe Illustrator 15.0.2, SVG Export Plug-In . SVG Version: 6.00 Build 0)  -->
<!DOCTYPE svg PUBLIC "-//W3C//DTD SVG 1.1//EN" "http://www.w3.org/Graphics/SVG/1.1/DTD/svg11.dtd">
<svg version="1.1" id="Слой_2" xmlns="http://www.w3.org/2000/svg" xmlns:xlink="http://www.w3.org/1999/xlink" x="0px" y="0px"
	 width="94px" height="37px" viewBox="0 0 94 37" enable-background="new 0 0 94 37" xml:space="preserve">
<polygon fill="#2B296C" points="13.055,26.447 13.055,12.484 21.114,12.484 21.114,26.447 28.167,26.447 28.167,6.943 5.929,6.943 
	5.929,26.447 "/>
<path fill="#2B296C" d="M30.759,6.943l0.971,5.182c0,0,4.462-0.432,7.485-0.432c3.023,0,6.081,0.432,6.081,0.432l0.324,2.231h-9.175
	l-0.037,4.858h9.212l-0.359,2.159c0,0-2.735,0.431-5.506,0.431c-2.771,0-7.988-0.396-7.988-0.396l-1.007,5.039
	c0,0,5.721,0.575,9.895,0.575c4.175,0,9.86-0.575,9.86-0.575s1.547-5.506,1.584-9.464c0.036-3.959-1.619-10.04-1.619-10.04
	s-5.326-0.504-9.051-0.504S30.759,6.943,30.759,6.943z"/>
<polygon fill="#2B296C" points="61.922,7.015 61.922,14.032 64.585,14.032 70.163,7.015 78.332,7.015 70.412,16.119 78.978,26.627 
	70.271,26.627 64.512,19.178 61.922,19.142 61.922,26.627 54.977,26.627 54.977,7.015 "/>
<path fill="#ED1A4A" d="M81.258,12.964h6.813V7.015c0,0-1.631-0.288-3.407-0.288c-2.123,0-3.406,0.288-3.406,0.288V12.964z"/>
<path fill="#ED1A4A" d="M88.037,20.689h-6.815v5.95c0,0,1.633,0.288,3.407,0.288c2.123,0,3.408-0.288,3.408-0.288V20.689z"/>
</svg>
