<?xml version="1.0" encoding="utf-8"?>
<!-- Generator: Adobe Illustrator 15.0.2, SVG Export Plug-In . SVG Version: 6.00 Build 0)  -->
<!DOCTYPE svg PUBLIC "-//W3C//DTD SVG 1.1//EN" "http://www.w3.org/Graphics/SVG/1.1/DTD/svg11.dtd">
<svg version="1.1" id="Слой_1" xmlns="http://www.w3.org/2000/svg" xmlns:xlink="http://www.w3.org/1999/xlink" x="0px" y="0px"
	 width="116px" height="23.111px" viewBox="0 0 116 23.111" enable-background="new 0 0 116 23.111" xml:space="preserve">
<path fill="#056336" d="M112.159,3.365h2.745c-0.491,0.275-1.15,0.797-1.978,1.564l-2.744,2.804l1.505,2.155
	c1.573,2.243,2.952,3.955,4.132,5.136h-3.926c-0.491-1.142-1.131-2.302-1.919-3.483l-1.77-2.656l1.535-1.948
	C111.117,5.146,111.924,3.956,112.159,3.365L112.159,3.365z M107.997,4.663v9.033l0.119,0.679c0.078,0.116,0.255,0.216,0.53,0.294
	v0.354h-3.808v-0.354l0.532-0.294c0.078-0.119,0.118-0.346,0.118-0.679V4.663l-0.118-0.649c-0.079-0.137-0.258-0.226-0.532-0.265
	V3.365h3.808v0.384c-0.275,0.039-0.453,0.128-0.53,0.265L107.997,4.663z M102.332,4.663v9.033l0.116,0.679l0.532,0.294v0.354h-3.838
	v-0.354c0.275-0.078,0.474-0.178,0.591-0.294l0.088-0.679V9.002h-4.485v4.694l0.118,0.679c0.078,0.116,0.254,0.216,0.53,0.294v0.354
	h-3.867v-0.354c0.314-0.078,0.51-0.178,0.59-0.294l0.119-0.679V4.663l-0.119-0.649c-0.08-0.137-0.275-0.226-0.59-0.265V3.365h3.867
	v0.384c-0.277,0.039-0.452,0.128-0.531,0.265l-0.119,0.649v3.571h4.486V4.663l-0.087-0.649c-0.117-0.137-0.315-0.226-0.591-0.265
	V3.365h3.838v0.384c-0.277,0.039-0.453,0.128-0.532,0.265L102.332,4.663z M115.819,19.097H30.401v-1.151h85.418V19.097
	L115.819,19.097z M83.765,3.749V3.365h3.365c0.039,0.531,0.178,1.102,0.413,1.712l2.479,6.966c0.413,1.22,0.816,2.213,1.211,2.981
	h-2.952l-1.269-4.191h-3.75l-0.796,2.774l-0.235,1.417h-2.126l3.776-8.737c0.374-0.924,0.561-1.554,0.561-1.889
	C84.445,4.024,84.217,3.808,83.765,3.749L83.765,3.749z M85.152,5.313l-1.594,4.693h3.188L85.152,5.313z M79.19,5.903h-0.648
	l-0.148-0.501c-0.157-0.571-0.395-0.945-0.709-1.122l-1.623-0.207h-1.564c-0.354,0-0.589,0.06-0.708,0.177
	c-0.098,0.098-0.146,0.275-0.146,0.531v2.774h0.648c1.89,0,3.198,0.187,3.927,0.561c1.042,0.511,1.563,1.515,1.563,3.01
	c0,1.457-0.413,2.499-1.238,3.128c-0.729,0.512-1.86,0.768-3.396,0.768h-4.664v-0.354l0.563-0.294l0.087-0.679V4.663l-0.087-0.649
	c-0.079-0.137-0.267-0.226-0.563-0.265V3.365h8.708V5.903z M73.643,8.294v4.988c0,0.394,0.068,0.648,0.205,0.768
	c0.159,0.156,0.435,0.235,0.827,0.235h0.354c0.747,0,1.299-0.256,1.652-0.767c0.314-0.473,0.472-1.23,0.472-2.273
	c0-1.023-0.167-1.75-0.501-2.185c-0.354-0.512-1.013-0.767-1.978-0.767H73.643L73.643,8.294z M69.451,6.7
	c0,1.357-0.414,2.332-1.24,2.921c-0.708,0.513-1.811,0.768-3.306,0.768h-1.181v3.307l0.118,0.679
	c0.059,0.116,0.244,0.216,0.56,0.294v0.354h-3.837v-0.354l0.53-0.294l0.119-0.679V4.663l-0.119-0.649
	c-0.077-0.137-0.255-0.226-0.53-0.265V3.365h4.84c1.318,0,2.282,0.197,2.893,0.591C69.067,4.467,69.451,5.382,69.451,6.7z
	 M63.901,4.191c-0.118,0.079-0.177,0.256-0.177,0.532v4.929h1.181c0.728,0,1.239-0.276,1.535-0.827
	c0.256-0.492,0.383-1.24,0.383-2.243c0-1.672-0.698-2.509-2.096-2.509h-0.295L63.901,4.191L63.901,4.191z M58.795,5.903h-0.62
	l-0.148-0.501c-0.195-0.571-0.442-0.945-0.737-1.122l-1.595-0.207h-1.298l-0.472,0.118l-0.118,0.443v3.6h1.535
	c1.062,0,1.761-0.117,2.096-0.354v1.476c-0.335-0.237-1.034-0.354-2.096-0.354h-1.535v4.369c0,0.354,0.118,0.6,0.354,0.737
	l1.476,0.177h0.325l1.593-0.235c0.277-0.178,0.492-0.609,0.649-1.298l0.118-0.444h0.739v2.716h-8.413v-0.354
	c0.295-0.078,0.482-0.178,0.561-0.294l0.119-0.679V4.663l-0.119-0.649c-0.079-0.137-0.265-0.226-0.561-0.265V3.365h8.146V5.903
	L58.795,5.903z M48.73,5.903h-0.62l-0.148-0.501c-0.177-0.571-0.422-0.945-0.737-1.122l-1.564-0.207h-1.624
	c-0.334,0-0.57,0.06-0.708,0.177C43.27,4.349,43.24,4.525,43.24,4.782v2.774h0.649c1.87,0,3.179,0.187,3.926,0.561
	c1.023,0.511,1.535,1.515,1.535,3.01c0,1.457-0.414,2.499-1.24,3.128c-0.708,0.512-1.84,0.768-3.394,0.768h-4.693v-0.354
	c0.315-0.078,0.512-0.178,0.59-0.294l0.119-0.679V4.663l-0.119-0.649c-0.078-0.137-0.274-0.226-0.59-0.265V3.365h8.708V5.903
	L48.73,5.903z M36.983,4.309c-0.354-0.255-0.905-0.383-1.653-0.383c-1.181,0-2.017,0.433-2.509,1.298
	c-0.413,0.748-0.62,1.968-0.62,3.66c0,1.693,0.227,2.941,0.679,3.748c0.55,1.003,1.495,1.505,2.833,1.505
	c0.983,0,1.958-0.236,2.922-0.708l0.354,0.737c-1.122,0.688-2.44,1.033-3.955,1.033c-3.701,0-5.55-1.958-5.55-5.873
	c0-4.112,1.918-6.168,5.755-6.168c1.476,0,2.607,0.177,3.395,0.53v2.42h-0.739l-0.206-0.708C37.534,4.91,37.298,4.545,36.983,4.309
	L36.983,4.309z M43.24,8.294v4.988c0,0.394,0.059,0.648,0.177,0.768c0.158,0.156,0.443,0.235,0.856,0.235h0.325
	c1.417,0,2.125-1.014,2.125-3.04c0-1.023-0.167-1.75-0.501-2.185c-0.374-0.512-1.043-0.767-2.007-0.767H43.24L43.24,8.294z"/>
<radialGradient id="SVGID_1_" cx="-332.0137" cy="286.2686" r="1.1058" gradientTransform="matrix(12.5 0 0 -12.5 4162.9844 3589.7031)" gradientUnits="userSpaceOnUse">
	<stop  offset="0" style="stop-color:#52A346"/>
	<stop  offset="0.502" style="stop-color:#83B040"/>
	<stop  offset="0.706" style="stop-color:#2FA64B"/>
	<stop  offset="0.929" style="stop-color:#274123"/>
	<stop  offset="0.933" style="stop-color:#274123"/>
</radialGradient>
<path fill="url(#SVGID_1_)" d="M19.333,1.506l1.033,0.944L7.32,9.947L1.003,6.287l0.59-1.18L7.32,8.382L19.333,1.506z M16.706,0
	l1.387,0.708L7.32,6.907L2.302,4.044l0.856-1.033L7.32,5.402L16.706,0z M21.281,3.424l0.768,1.033L7.32,12.928L0.207,8.855
	l0.324-1.299l6.789,3.896L21.281,3.424z"/>
<radialGradient id="SVGID_2_" cx="-332.0137" cy="286.2695" r="1.1052" gradientTransform="matrix(12.5 0 0 -12.5 4162.9844 3589.7031)" gradientUnits="userSpaceOnUse">
	<stop  offset="0" style="stop-color:#52A346"/>
	<stop  offset="0.502" style="stop-color:#83B040"/>
	<stop  offset="0.706" style="stop-color:#2C9947"/>
	<stop  offset="0.929" style="stop-color:#274123"/>
	<stop  offset="0.933" style="stop-color:#274123"/>
</radialGradient>
<path fill="url(#SVGID_2_)" d="M23.406,7.232c0.433,1.22,0.649,2.498,0.649,3.836c0,1.338-0.216,2.637-0.649,3.896l-0.295,0.797
	c-0.605,1.43-1.477,2.731-2.568,3.837c-1.101,1.088-2.404,1.95-3.837,2.538c-1.515,0.65-3.08,0.975-4.693,0.975
	c-1.633,0-3.197-0.324-4.692-0.975c-1.397-0.59-2.667-1.437-3.808-2.538c-1.122-1.122-1.977-2.4-2.567-3.837
	C0.32,14.276,0,12.68,0,11.068v-0.797l7.32,4.162l15.436-8.854L23.406,7.232z"/>
</svg>
