<?xml version="1.0" encoding="utf-8"?>
<!-- Generator: Adobe Illustrator 15.0.2, SVG Export Plug-In . SVG Version: 6.00 Build 0)  -->
<!DOCTYPE svg PUBLIC "-//W3C//DTD SVG 1.1//EN" "http://www.w3.org/Graphics/SVG/1.1/DTD/svg11.dtd">
<svg version="1.1" id="Слой_1" xmlns="http://www.w3.org/2000/svg" xmlns:xlink="http://www.w3.org/1999/xlink" x="0px" y="0px"
	 width="51px" height="71px" viewBox="0 0 51 71" enable-background="new 0 0 51 71" xml:space="preserve">
<path fill="none" stroke-width="3" stroke-miterlimit="3" d="M2.111,64.438c0,2.815,2.285,5.1,5.101,5.1h36.782
	c2.817,0,5.102-2.284,5.102-5.1l-2.934-30.725c0-2.816-2.283-5.101-5.101-5.101H10.146c-2.817,0-5.101,2.284-5.101,5.101
	L2.111,64.438z"/>
<path fill="none" stroke-width="3" stroke-miterlimit="3" d="M13.083,17.918c0,2.39,1.937,4.328,4.326,4.328
	h16.387c2.392,0,4.327-1.938,4.327-4.328L36.881,6.086c0-2.389-1.938-4.327-4.327-4.327h-13.9c-2.389,0-4.327,1.938-4.327,4.327
	L13.083,17.918z"/>
<line fill="none" stroke-width="3" stroke-linecap="round" stroke-linejoin="round" stroke-miterlimit="22.9256" stroke-dasharray="3,7" x1="16.521" y1="37.643" x2="14.198" y2="62.451"/>
<line fill="none" stroke-width="3" stroke-linecap="round" stroke-linejoin="round" stroke-miterlimit="22.9256" stroke-dasharray="3,7" x1="34.664" y1="37.643" x2="37.343" y2="62.451"/>
</svg>
