<?xml version="1.0" encoding="utf-8"?>
<!-- Generator: Adobe Illustrator 15.0.2, SVG Export Plug-In . SVG Version: 6.00 Build 0)  -->
<!DOCTYPE svg PUBLIC "-//W3C//DTD SVG 1.1//EN" "http://www.w3.org/Graphics/SVG/1.1/DTD/svg11.dtd">
<svg version="1.1" id="Шар_1" xmlns="http://www.w3.org/2000/svg" xmlns:xlink="http://www.w3.org/1999/xlink" x="0px" y="0px"
	 width="122.71px" height="121.7px" viewBox="0 0 122.71 121.7" enable-background="new 0 0 122.71 121.7" xml:space="preserve">
<path fill="#32A4DD" d="M100.863,19.788c8.783,8.851,15.242,18.977,17.297,33.186c2.254,15.569-2.055,29.905-8.755,40.099
	c-9.056,13.793-25.967,26.674-49.335,26.045c-7.691-0.205-14.378-1.8-20.753-4.373C16.872,105.659-0.758,81.999,4.77,50.896
	C7.224,37,13.609,26.549,22.756,18.634c8.893-7.751,20.88-14.025,36.395-14.756C78.346,2.974,90.615,11.13,100.863,19.788z
	 M67.446,43.754c-8.597,3.021-16.705,5.794-25.803,8.99c-3.172,1.1-10.736,2.725-11.081,6.452c-0.447,5.196,6.573,6.9,9.443,8.301
	c3.16,1.513,9.474,3.555,11.77,5.982c1.238,1.323,2.096,3.938,2.984,5.773c0.949,1.893,2.127,3.959,3.002,5.746
	c1.565,3.095,3.172,9.879,7.849,9.696c3.933-0.169,5.371-7.417,6.894-11.762c3.529-10.041,6.488-18.771,9.686-27.659
	c0.991-2.707,5.527-10.941,3.462-14.517c-1.104-1.921-3.716-1.547-4.839-1.39C76.291,40.033,71.71,42.25,67.446,43.754z"/>
</svg>
