<?xml version="1.0" encoding="utf-8"?>
<!-- Generator: Adobe Illustrator 15.0.2, SVG Export Plug-In . SVG Version: 6.00 Build 0)  -->
<!DOCTYPE svg PUBLIC "-//W3C//DTD SVG 1.1//EN" "http://www.w3.org/Graphics/SVG/1.1/DTD/svg11.dtd">
<svg version="1.1" id="Слой_1" xmlns="http://www.w3.org/2000/svg" xmlns:xlink="http://www.w3.org/1999/xlink" x="0px" y="0px"
	 width="33.444px" height="31px" viewBox="0 0 33.444 31" enable-background="new 0 0 33.444 31" xml:space="preserve">
<path fill="none" stroke-width="1.44" stroke-linecap="round" stroke-linejoin="round" stroke-miterlimit="22.9256" d="
	M21.353,11.643l4.993-0.07c0.756-0.009,2.063,0.766,2.502,1.374l2.56,3.554c0.771,1.068,1.214,2.447,1.214,3.765v4.008
	c0,0.754-0.619,1.373-1.371,1.373h-0.781c-0.648-2.289-2.756-3.968-5.253-3.968c-2.5,0-4.607,1.679-5.256,3.968h-6.53
	c-0.649-2.289-2.756-3.968-5.254-3.968c-2.5,0-4.604,1.679-5.255,3.968H2.142c-0.753,0-1.373-0.617-1.373-1.373v-7.844
	c0,0.753,0.622,1.371,1.373,1.371h17.837c0.752,0,1.373-0.62,1.373-1.371V11.643L21.353,11.643z"/>
<path fill="none" stroke-width="1.44" stroke-linecap="round" stroke-linejoin="round" stroke-miterlimit="22.9256" d="
	M25.216,24.601c1.556,0,2.817,1.263,2.817,2.82c0,1.556-1.262,2.818-2.817,2.818c-1.558,0-2.82-1.263-2.82-2.818
	C22.396,25.863,23.658,24.601,25.216,24.601L25.216,24.601z"/>
<path fill="none" stroke-width="1.44" stroke-linecap="round" stroke-linejoin="round" stroke-miterlimit="22.9256" d="
	M8.176,24.601c1.556,0,2.818,1.263,2.818,2.82c0,1.556-1.263,2.818-2.818,2.818c-1.558,0-2.82-1.263-2.82-2.818
	C5.356,25.863,6.619,24.601,8.176,24.601L8.176,24.601z"/>
<path fill="none" stroke-width="1.44" stroke-linecap="round" stroke-linejoin="round" stroke-miterlimit="22.9256" d="
	M2.142,0.793h17.837c0.756,0,1.373,0.622,1.373,1.373v14.109c0,0.751-0.621,1.371-1.373,1.371H2.142
	c-0.751,0-1.373-0.618-1.373-1.371V2.167C0.769,1.411,1.387,0.793,2.142,0.793L2.142,0.793z"/>
</svg>
