<?xml version="1.0" encoding="utf-8"?>
<!-- Generator: Adobe Illustrator 15.0.2, SVG Export Plug-In . SVG Version: 6.00 Build 0)  -->
<!DOCTYPE svg PUBLIC "-//W3C//DTD SVG 1.1//EN" "http://www.w3.org/Graphics/SVG/1.1/DTD/svg11.dtd">
<svg version="1.1" id="Слой_1" xmlns="http://www.w3.org/2000/svg" xmlns:xlink="http://www.w3.org/1999/xlink" x="0px" y="0px"
	 width="100px" height="32.004px" viewBox="0 0 100 32.004" enable-background="new 0 0 100 32.004" xml:space="preserve">
<g>
	<g>
		<polygon fill="#0066B3" points="43.425,31.473 35.388,31.473 40.411,0.6 48.45,0.6 		"/>
		<path fill="#0066B3" d="M28.625,0.6l-7.663,21.234l-0.906-4.572l0.001,0.001L17.352,3.38c0,0-0.327-2.78-3.813-2.78H0.872
			L0.724,1.123c0,0,3.875,0.806,8.407,3.53l6.983,26.82h8.375L37.277,0.6H28.625z"/>
		<path fill="#0066B3" d="M91.846,31.473h7.38L92.793,0.6H86.33c-2.985,0-3.71,2.3-3.71,2.3L70.632,31.473h8.377l1.677-4.586h10.218
			L91.846,31.473z M83.002,20.551l4.224-11.553l2.375,11.553H83.002z"/>
		<path fill="#0066B3" d="M71.261,8.024l1.146-6.631c0,0-3.539-1.345-7.229-1.345c-3.988,0-13.46,1.744-13.46,10.219
			c0,7.978,11.117,8.076,11.117,12.265c0,4.188-9.971,3.439-13.261,0.797l-1.197,6.932c0,0,3.587,1.744,9.074,1.744
			c5.483,0,13.76-2.841,13.76-10.57c0-8.025-11.218-8.774-11.218-12.263C59.993,5.68,67.819,6.129,71.261,8.024z"/>
	</g>
	<path fill="#FAA634" d="M20.057,17.263L17.352,3.38c0,0-0.327-2.78-3.813-2.78H0.872L0.724,1.123c0,0,6.089,1.262,11.929,5.989
		C18.236,11.63,20.057,17.263,20.057,17.263z"/>
</g>
<rect x="-8.547" y="-42.496" fill="none" width="117.043" height="117.044"/>
</svg>
