<?xml version="1.0" encoding="utf-8"?>
<!-- Generator: Adobe Illustrator 15.0.2, SVG Export Plug-In . SVG Version: 6.00 Build 0)  -->
<!DOCTYPE svg PUBLIC "-//W3C//DTD SVG 1.1//EN" "http://www.w3.org/Graphics/SVG/1.1/DTD/svg11.dtd">
<svg version="1.1" id="Шар_1" xmlns="http://www.w3.org/2000/svg" xmlns:xlink="http://www.w3.org/1999/xlink" x="0px" y="0px"
	 width="122.71px" height="121.7px" viewBox="0 0 122.71 121.7" enable-background="new 0 0 122.71 121.7" xml:space="preserve">
<path fill="#4EA734" d="M27.561,111.904c-7.813,2.429-15.345,5.077-23.377,7.28c2.613-7.209,4.709-14.902,7.568-21.866
	C6.303,88.45,1.209,79.192,0.225,67.254c-1.046-12.647,1.612-24.637,6.692-34.319C16.005,15.603,34.448,1.657,58.249,0.133
	c22.605-1.44,39.652,9.043,50.686,22.486c10.962,13.307,17.705,34.656,11.268,56.187c-5.189,17.254-18.602,31.264-34.619,38.272
	C67.664,124.887,40.988,122.562,27.561,111.904z M90.128,73.321c-2.821-1.376-6.988-4.398-9.715-3.947
	c-3.76,0.627-5.633,9.03-9.404,9.418c-2.094,0.194-5.93-2.371-8.523-3.953c-6.401-3.875-9.373-6.588-13.355-11.543
	c-1.389-1.717-5.07-5.501-4.86-7.886c0.245-3.249,5.895-4.896,6.072-9.114c0.126-3.004-2.606-6.621-3.65-9.102
	c-1.362-3.308-1.686-6.188-4.267-8.817c-8.313-2.461-13.342,3.327-15.464,8.817c-4.096,10.562,2.041,20.742,6.66,27.331
	c6.627,9.449,16.207,19.113,26.736,24.301c5.813,2.842,13.229,5.918,19.142,6.369c10.451,0.809,19.967-5.82,19.15-17.008
	C96.503,75.975,93.469,74.956,90.128,73.321z"/>
</svg>
